<?xml version="1.0" encoding="UTF-8"?><svg xmlns="http://www.w3.org/2000/svg" xmlns:xlink="http://www.w3.org/1999/xlink" contentScriptType="text/ecmascript" width="375" zoomAndPan="magnify" contentStyleType="text/css" viewBox="0 0 375 374.999991" height="374.999991" preserveAspectRatio="xMidYMid meet" version="1.0"><defs><clipPath id="clip-0"><path d="M 186 19.378906 L 189 19.378906 L 189 58 L 186 58 Z M 186 19.378906 " clip-rule="nonzero"/></clipPath><clipPath id="clip-1"><path d="M 24.84375 185 L 51 185 L 51 188 L 24.84375 188 Z M 24.84375 185 " clip-rule="nonzero"/></clipPath><clipPath id="clip-2"><path d="M 327 185 L 350.34375 185 L 350.34375 188 L 327 188 Z M 327 185 " clip-rule="nonzero"/></clipPath><clipPath id="clip-3"><path d="M 336 216 L 350.34375 216 L 350.34375 220 L 336 220 Z M 336 216 " clip-rule="nonzero"/></clipPath><clipPath id="clip-4"><path d="M 184 348 L 187 348 L 187 355.378906 L 184 355.378906 Z M 184 348 " clip-rule="nonzero"/></clipPath></defs><path fill="rgb(43.919373%, 81.17981%, 97.24884%)" d="M 185.570312 344.09375 C 185.148438 344.09375 184.816406 343.757812 184.816406 343.34375 L 184.816406 325.511719 C 184.816406 325.101562 185.148438 324.761719 185.570312 324.761719 C 185.980469 324.761719 186.3125 325.101562 186.3125 325.511719 L 186.3125 343.34375 C 186.3125 343.757812 185.980469 344.09375 185.570312 344.09375 " fill-opacity="1" fill-rule="nonzero"/><g clip-path="url(#clip-0)"><path fill="rgb(43.919373%, 81.17981%, 97.24884%)" d="M 187.054688 57.175781 C 187.054688 57.175781 187.054688 57.175781 187.046875 57.175781 C 186.609375 57.175781 186.246094 56.8125 186.25 56.367188 C 186.277344 53.378906 186.382812 44.910156 186.488281 36.8125 C 186.578125 29.746094 186.664062 22.953125 186.691406 20.34375 C 186.695312 19.898438 187.085938 19.613281 187.503906 19.550781 C 187.949219 19.554688 188.308594 19.917969 188.300781 20.363281 C 188.277344 22.972656 188.1875 29.757812 188.101562 36.828125 C 187.992188 44.929688 187.886719 53.390625 187.863281 56.382812 C 187.855469 56.824219 187.5 57.175781 187.054688 57.175781 " fill-opacity="1" fill-rule="nonzero"/></g><path fill="rgb(43.919373%, 81.17981%, 97.24884%)" d="M 150.414062 351.503906 C 150.363281 351.503906 150.304688 351.5 150.25 351.480469 C 149.84375 351.390625 149.59375 350.984375 149.679688 350.585938 C 150.4375 347.21875 151.144531 344.519531 151.828125 341.917969 C 152.511719 339.320312 153.214844 336.632812 153.972656 333.285156 C 154.066406 332.878906 154.46875 332.621094 154.875 332.714844 C 155.277344 332.808594 155.53125 333.210938 155.4375 333.617188 C 154.679688 336.992188 153.972656 339.6875 153.289062 342.292969 C 152.605469 344.890625 151.90625 347.566406 151.152344 350.917969 C 151.070312 351.261719 150.757812 351.503906 150.414062 351.503906 " fill-opacity="1" fill-rule="nonzero"/><path fill="rgb(43.919373%, 81.17981%, 97.24884%)" d="M 211.707031 59.011719 C 211.65625 59.011719 211.601562 58.996094 211.550781 58.992188 C 211.140625 58.902344 210.886719 58.503906 210.964844 58.097656 C 212.105469 52.859375 214.5625 42.035156 216.539062 33.335938 C 217.363281 29.707031 218.097656 26.492188 218.59375 24.28125 C 218.6875 23.878906 219.089844 23.617188 219.496094 23.71875 C 219.902344 23.804688 220.152344 24.207031 220.066406 24.613281 C 219.566406 26.816406 218.835938 30.039062 218.011719 33.675781 C 216.03125 42.363281 213.574219 53.183594 212.4375 58.414062 C 212.363281 58.765625 212.050781 59.011719 211.707031 59.011719 " fill-opacity="1" fill-rule="nonzero"/><path fill="rgb(43.919373%, 81.17981%, 97.24884%)" d="M 125.273438 328.828125 C 125.171875 328.828125 125.070312 328.8125 124.972656 328.765625 C 124.589844 328.605469 124.417969 328.152344 124.582031 327.777344 C 125.722656 325.195312 126.75 322.902344 127.777344 320.613281 C 128.820312 318.304688 129.859375 315.988281 131.003906 313.371094 C 131.175781 312.988281 131.621094 312.8125 131.996094 312.984375 C 132.378906 313.144531 132.554688 313.589844 132.382812 313.972656 C 131.238281 316.59375 130.191406 318.910156 129.152344 321.230469 C 128.121094 323.515625 127.09375 325.800781 125.960938 328.378906 C 125.84375 328.660156 125.566406 328.828125 125.273438 328.828125 " fill-opacity="1" fill-rule="nonzero"/><path fill="rgb(43.919373%, 81.17981%, 97.24884%)" d="M 240.09375 65.511719 C 239.988281 65.511719 239.886719 65.488281 239.78125 65.445312 C 239.40625 65.269531 239.234375 64.824219 239.410156 64.449219 C 241.277344 60.34375 243.171875 56.238281 245.089844 52.15625 C 245.261719 51.773438 245.714844 51.617188 246.089844 51.789062 C 246.46875 51.96875 246.628906 52.414062 246.453125 52.789062 C 244.535156 56.875 242.652344 60.96875 240.777344 65.070312 C 240.652344 65.351562 240.382812 65.511719 240.09375 65.511719 " fill-opacity="1" fill-rule="nonzero"/><path fill="rgb(43.919373%, 81.17981%, 97.24884%)" d="M 248.246094 47.976562 C 248.132812 47.976562 248.027344 47.957031 247.921875 47.90625 C 247.542969 47.726562 247.386719 47.28125 247.5625 46.90625 C 248.949219 43.988281 250.347656 41.085938 251.753906 38.1875 C 251.9375 37.804688 252.390625 37.65625 252.757812 37.835938 C 253.132812 38.019531 253.292969 38.46875 253.109375 38.839844 C 251.699219 41.738281 250.300781 44.640625 248.921875 47.550781 C 248.796875 47.820312 248.523438 47.976562 248.246094 47.976562 " fill-opacity="1" fill-rule="nonzero"/><path fill="rgb(43.919373%, 81.17981%, 97.24884%)" d="M 95.148438 320.011719 C 94.980469 320.011719 94.816406 319.957031 94.679688 319.84375 C 94.351562 319.585938 94.300781 319.109375 94.566406 318.785156 C 95.503906 317.621094 96.359375 316.59375 97.160156 315.628906 C 99.320312 313.019531 101.1875 310.773438 103.582031 307.324219 C 103.820312 306.988281 104.296875 306.898438 104.628906 307.136719 C 104.972656 307.375 105.0625 307.84375 104.824219 308.183594 C 102.386719 311.6875 100.5 313.960938 98.320312 316.589844 C 97.515625 317.550781 96.671875 318.570312 95.730469 319.730469 C 95.582031 319.917969 95.367188 320.011719 95.148438 320.011719 " fill-opacity="1" fill-rule="nonzero"/><path fill="rgb(43.919373%, 81.17981%, 97.24884%)" d="M 263.28125 78.03125 C 263.128906 78.03125 262.980469 77.984375 262.847656 77.890625 C 262.507812 77.65625 262.429688 77.191406 262.664062 76.847656 C 267.058594 70.558594 271.453125 64.265625 275.851562 57.976562 C 276.089844 57.632812 276.558594 57.550781 276.898438 57.789062 C 277.234375 58.027344 277.324219 58.496094 277.085938 58.835938 C 272.6875 65.125 268.292969 71.414062 263.898438 77.710938 C 263.757812 77.917969 263.519531 78.03125 263.28125 78.03125 " fill-opacity="1" fill-rule="nonzero"/><path fill="rgb(43.919373%, 81.17981%, 97.24884%)" d="M 69.695312 305.429688 C 69.5 305.429688 69.3125 305.359375 69.160156 305.210938 C 68.867188 304.914062 68.867188 304.441406 69.160156 304.144531 L 80.308594 293.011719 C 80.605469 292.71875 81.078125 292.71875 81.375 293.011719 C 81.667969 293.304688 81.667969 293.78125 81.375 294.074219 L 70.226562 305.210938 C 70.082031 305.359375 69.886719 305.429688 69.695312 305.429688 " fill-opacity="1" fill-rule="nonzero"/><path fill="rgb(43.919373%, 81.17981%, 97.24884%)" d="M 84.769531 290.371094 C 84.578125 290.371094 84.375 290.296875 84.230469 290.140625 C 83.945312 289.84375 83.949219 289.363281 84.25 289.082031 C 86.632812 286.773438 89.007812 284.46875 91.375 282.152344 C 91.675781 281.867188 92.152344 281.871094 92.441406 282.167969 C 92.734375 282.464844 92.730469 282.941406 92.429688 283.234375 C 90.058594 285.546875 87.679688 287.855469 85.296875 290.160156 C 85.152344 290.296875 84.957031 290.371094 84.769531 290.371094 " fill-opacity="1" fill-rule="nonzero"/><path fill="rgb(43.919373%, 81.17981%, 97.24884%)" d="M 279.761719 94.214844 C 279.566406 94.214844 279.367188 94.140625 279.222656 93.988281 C 278.933594 93.6875 278.941406 93.214844 279.234375 92.925781 C 280.367188 91.824219 281.132812 91.054688 281.878906 90.296875 C 282.71875 89.4375 283.535156 88.605469 284.832031 87.367188 C 285.125 87.085938 285.609375 87.09375 285.890625 87.394531 C 286.179688 87.691406 286.164062 88.167969 285.871094 88.457031 C 284.585938 89.675781 283.785156 90.503906 282.949219 91.347656 C 282.199219 92.113281 281.429688 92.894531 280.289062 94 C 280.136719 94.144531 279.949219 94.214844 279.761719 94.214844 " fill-opacity="1" fill-rule="nonzero"/><path fill="rgb(43.919373%, 81.17981%, 97.24884%)" d="M 291.738281 82.824219 C 291.535156 82.824219 291.339844 82.75 291.191406 82.59375 C 290.910156 82.292969 290.914062 81.816406 291.214844 81.527344 C 293.039062 79.789062 294.625 78.253906 296.210938 76.722656 C 297.820312 75.164062 299.433594 73.605469 301.285156 71.832031 C 301.585938 71.546875 302.0625 71.558594 302.351562 71.859375 C 302.640625 72.160156 302.628906 72.636719 302.328125 72.921875 C 300.472656 74.6875 298.867188 76.246094 297.257812 77.796875 C 295.671875 79.339844 294.085938 80.871094 292.257812 82.617188 C 292.113281 82.753906 291.925781 82.824219 291.738281 82.824219 " fill-opacity="1" fill-rule="nonzero"/><path fill="rgb(43.919373%, 81.17981%, 97.24884%)" d="M 28.226562 215.925781 C 27.875 215.925781 27.558594 215.667969 27.496094 215.304688 C 27.417969 214.898438 27.6875 214.503906 28.101562 214.4375 L 39.808594 212.328125 C 40.214844 212.257812 40.605469 212.527344 40.679688 212.933594 C 40.753906 213.339844 40.480469 213.734375 40.070312 213.808594 L 28.367188 215.914062 C 28.320312 215.917969 28.277344 215.925781 28.226562 215.925781 " fill-opacity="1" fill-rule="nonzero"/><path fill="rgb(43.919373%, 81.17981%, 97.24884%)" d="M 47.953125 212.382812 C 47.605469 212.382812 47.289062 212.125 47.222656 211.769531 C 47.144531 211.363281 47.410156 210.96875 47.816406 210.886719 C 52.242188 210.046875 56.664062 209.222656 61.089844 208.394531 C 61.492188 208.316406 61.890625 208.589844 61.972656 208.996094 C 62.046875 209.402344 61.777344 209.796875 61.371094 209.875 C 56.949219 210.699219 52.523438 211.527344 48.097656 212.363281 C 48.054688 212.375 48.003906 212.382812 47.953125 212.382812 " fill-opacity="1" fill-rule="nonzero"/><path fill="rgb(43.919373%, 81.17981%, 97.24884%)" d="M 328.21875 162.195312 C 327.863281 162.195312 327.550781 161.9375 327.480469 161.582031 C 327.40625 161.175781 327.675781 160.78125 328.082031 160.707031 C 334.261719 159.535156 340.441406 158.359375 346.617188 157.175781 C 347.015625 157.105469 347.421875 157.371094 347.496094 157.777344 C 347.578125 158.183594 347.308594 158.578125 346.902344 158.652344 C 340.722656 159.835938 334.542969 161.011719 328.359375 162.175781 C 328.3125 162.1875 328.265625 162.195312 328.21875 162.195312 " fill-opacity="1" fill-rule="nonzero"/><g clip-path="url(#clip-1)"><path fill="rgb(43.919373%, 81.17981%, 97.24884%)" d="M 49.507812 187.292969 L 25.675781 187.292969 C 25.257812 187.292969 24.917969 186.960938 24.917969 186.546875 C 24.917969 186.128906 25.257812 185.796875 25.675781 185.796875 L 49.507812 185.796875 C 49.929688 185.796875 50.261719 186.128906 50.261719 186.546875 C 50.261719 186.960938 49.929688 187.292969 49.507812 187.292969 " fill-opacity="1" fill-rule="nonzero"/></g><g clip-path="url(#clip-2)"><path fill="rgb(43.919373%, 81.17981%, 97.24884%)" d="M 328.257812 187.347656 C 327.839844 187.347656 327.507812 187.011719 327.507812 186.597656 C 327.5 186.183594 327.839844 185.847656 328.257812 185.847656 L 349.3125 185.796875 L 349.320312 185.796875 C 349.734375 185.796875 350.070312 186.128906 350.070312 186.542969 C 350.070312 186.953125 349.734375 187.292969 349.320312 187.292969 L 328.257812 187.347656 " fill-opacity="1" fill-rule="nonzero"/></g><path fill="rgb(43.919373%, 81.17981%, 97.24884%)" d="M 46.539062 159.367188 C 46.488281 159.367188 46.4375 159.367188 46.386719 159.355469 L 25.816406 155.3125 C 25.40625 155.230469 25.144531 154.835938 25.226562 154.429688 C 25.300781 154.015625 25.695312 153.757812 26.109375 153.832031 L 46.683594 157.875 C 47.089844 157.957031 47.351562 158.351562 47.273438 158.757812 C 47.203125 159.121094 46.890625 159.367188 46.539062 159.367188 " fill-opacity="1" fill-rule="nonzero"/><path fill="rgb(43.919373%, 81.17981%, 97.24884%)" d="M 64.679688 164.136719 C 64.636719 164.136719 64.59375 164.128906 64.542969 164.121094 C 61.347656 163.554688 58.152344 162.984375 54.949219 162.421875 C 54.539062 162.351562 54.265625 161.957031 54.339844 161.550781 C 54.410156 161.136719 54.808594 160.875 55.210938 160.9375 C 58.414062 161.5 61.609375 162.070312 64.8125 162.644531 C 65.21875 162.714844 65.496094 163.109375 65.417969 163.515625 C 65.355469 163.878906 65.039062 164.136719 64.679688 164.136719 " fill-opacity="1" fill-rule="nonzero"/><path fill="rgb(43.919373%, 81.17981%, 97.24884%)" d="M 331.226562 216.402344 C 331.179688 216.402344 331.132812 216.394531 331.089844 216.386719 C 327.582031 215.738281 324.078125 215.085938 320.574219 214.429688 C 320.160156 214.355469 319.898438 213.960938 319.972656 213.554688 C 320.046875 213.140625 320.449219 212.871094 320.851562 212.953125 C 324.355469 213.609375 327.855469 214.261719 331.359375 214.910156 C 331.765625 214.988281 332.042969 215.375 331.960938 215.789062 C 331.898438 216.144531 331.578125 216.402344 331.226562 216.402344 " fill-opacity="1" fill-rule="nonzero"/><g clip-path="url(#clip-3)"><path fill="rgb(43.919373%, 81.17981%, 97.24884%)" d="M 349.644531 219.722656 C 349.601562 219.722656 349.558594 219.71875 349.515625 219.710938 C 345.414062 218.992188 341.324219 218.253906 337.226562 217.515625 C 336.816406 217.441406 336.546875 217.046875 336.625 216.640625 C 336.691406 216.230469 337.101562 215.960938 337.496094 216.03125 C 341.585938 216.777344 345.679688 217.507812 349.777344 218.234375 C 350.183594 218.304688 350.460938 218.691406 350.386719 219.105469 C 350.324219 219.46875 350.003906 219.722656 349.644531 219.722656 " fill-opacity="1" fill-rule="nonzero"/></g><path fill="rgb(43.919373%, 81.17981%, 97.24884%)" d="M 341.503906 252.394531 C 341.410156 252.394531 341.316406 252.375 341.230469 252.335938 C 336.8125 250.589844 332.40625 248.828125 328.007812 247.03125 C 327.625 246.878906 327.4375 246.4375 327.59375 246.054688 C 327.75 245.664062 328.195312 245.484375 328.578125 245.640625 C 332.96875 247.429688 337.371094 249.195312 341.78125 250.9375 C 342.167969 251.09375 342.359375 251.53125 342.199219 251.910156 C 342.089844 252.210938 341.800781 252.394531 341.503906 252.394531 " fill-opacity="1" fill-rule="nonzero"/><path fill="rgb(43.919373%, 81.17981%, 97.24884%)" d="M 70.125 135.316406 C 70.03125 135.316406 69.9375 135.296875 69.84375 135.257812 C 64.675781 133.167969 59.492188 131.113281 54.304688 129.085938 C 53.914062 128.9375 53.726562 128.5 53.875 128.109375 C 54.027344 127.730469 54.460938 127.535156 54.847656 127.683594 C 60.050781 129.714844 65.230469 131.777344 70.40625 133.863281 C 70.796875 134.019531 70.976562 134.457031 70.820312 134.84375 C 70.707031 135.140625 70.421875 135.316406 70.125 135.316406 " fill-opacity="1" fill-rule="nonzero"/><path fill="rgb(43.919373%, 81.17981%, 97.24884%)" d="M 49.597656 126.960938 C 49.496094 126.960938 49.390625 126.941406 49.296875 126.898438 L 38.96875 122.378906 C 38.59375 122.214844 38.417969 121.769531 38.585938 121.390625 C 38.75 121.007812 39.195312 120.832031 39.578125 121 L 49.898438 125.519531 C 50.28125 125.6875 50.457031 126.128906 50.285156 126.507812 C 50.160156 126.789062 49.886719 126.960938 49.597656 126.960938 " fill-opacity="1" fill-rule="nonzero"/><path fill="rgb(43.919373%, 81.17981%, 97.24884%)" d="M 319.378906 279.023438 C 319.234375 279.023438 319.089844 278.988281 318.964844 278.898438 C 317.578125 277.996094 314.222656 275.996094 310.96875 274.054688 C 307.464844 271.964844 303.84375 269.804688 302.359375 268.824219 C 302.007812 268.589844 301.914062 268.128906 302.144531 267.785156 C 302.378906 267.433594 302.847656 267.339844 303.183594 267.566406 C 304.644531 268.527344 308.253906 270.679688 311.746094 272.765625 C 315.15625 274.800781 318.382812 276.722656 319.792969 277.648438 C 320.136719 277.871094 320.238281 278.335938 320.003906 278.6875 C 319.859375 278.90625 319.621094 279.023438 319.378906 279.023438 " fill-opacity="1" fill-rule="nonzero"/><path fill="rgb(43.919373%, 81.17981%, 97.24884%)" d="M 67.855469 104.453125 C 67.707031 104.453125 67.5625 104.417969 67.429688 104.320312 L 53.175781 94.433594 C 52.835938 94.195312 52.753906 93.726562 52.988281 93.386719 C 53.230469 93.042969 53.695312 92.960938 54.039062 93.195312 L 68.289062 103.089844 C 68.628906 103.320312 68.714844 103.789062 68.476562 104.132812 C 68.328125 104.347656 68.09375 104.453125 67.855469 104.453125 " fill-opacity="1" fill-rule="nonzero"/><path fill="rgb(43.919373%, 81.17981%, 97.24884%)" d="M 305.296875 305.183594 C 305.089844 305.183594 304.882812 305.105469 304.734375 304.933594 C 301.601562 301.390625 300.359375 300.023438 297.183594 296.515625 C 296.898438 296.210938 296.925781 295.734375 297.230469 295.460938 C 297.539062 295.175781 298.015625 295.203125 298.296875 295.507812 C 301.480469 299.015625 302.722656 300.390625 305.859375 303.941406 C 306.136719 304.253906 306.105469 304.722656 305.796875 304.996094 C 305.65625 305.128906 305.472656 305.183594 305.296875 305.183594 " fill-opacity="1" fill-rule="nonzero"/><path fill="rgb(43.919373%, 81.17981%, 97.24884%)" d="M 293.722656 292.457031 C 293.527344 292.457031 293.335938 292.378906 293.183594 292.230469 L 289.15625 288.144531 C 288.859375 287.847656 288.867188 287.367188 289.160156 287.078125 C 289.457031 286.785156 289.933594 286.792969 290.226562 287.085938 L 294.253906 291.171875 C 294.550781 291.472656 294.542969 291.949219 294.25 292.234375 C 294.105469 292.378906 293.910156 292.457031 293.722656 292.457031 " fill-opacity="1" fill-rule="nonzero"/><path fill="rgb(43.919373%, 81.17981%, 97.24884%)" d="M 322.992188 245.242188 C 322.90625 245.242188 322.8125 245.226562 322.722656 245.191406 L 317.359375 243.132812 C 316.972656 242.980469 316.777344 242.550781 316.929688 242.15625 C 317.078125 241.773438 317.511719 241.574219 317.90625 241.730469 L 323.261719 243.789062 C 323.652344 243.9375 323.847656 244.371094 323.695312 244.757812 C 323.582031 245.058594 323.292969 245.242188 322.992188 245.242188 " fill-opacity="1" fill-rule="nonzero"/><path fill="rgb(43.919373%, 81.17981%, 97.24884%)" d="M 83.035156 81.382812 C 82.839844 81.382812 82.644531 81.316406 82.503906 81.164062 L 69.441406 68.035156 C 69.148438 67.742188 69.15625 67.265625 69.449219 66.972656 C 69.742188 66.675781 70.226562 66.675781 70.515625 66.972656 L 83.566406 80.101562 C 83.863281 80.394531 83.863281 80.871094 83.566406 81.171875 C 83.421875 81.316406 83.230469 81.382812 83.035156 81.382812 " fill-opacity="1" fill-rule="nonzero"/><path fill="rgb(43.919373%, 81.17981%, 97.24884%)" d="M 283.558594 328.5625 C 283.328125 328.5625 283.09375 328.449219 282.945312 328.242188 C 280.257812 324.398438 277.574219 320.542969 274.917969 316.675781 C 274.679688 316.335938 274.765625 315.867188 275.109375 315.628906 C 275.449219 315.398438 275.917969 315.480469 276.15625 315.824219 C 278.816406 319.6875 281.492188 323.542969 284.179688 327.382812 C 284.417969 327.722656 284.335938 328.191406 283.992188 328.429688 C 283.859375 328.515625 283.707031 328.5625 283.558594 328.5625 " fill-opacity="1" fill-rule="nonzero"/><path fill="rgb(43.919373%, 81.17981%, 97.24884%)" d="M 116.566406 81.472656 C 116.328125 81.472656 116.085938 81.359375 115.941406 81.140625 C 113.289062 77.152344 110.644531 73.160156 108.007812 69.167969 C 107.78125 68.816406 107.875 68.355469 108.21875 68.121094 C 108.566406 67.890625 109.035156 67.992188 109.261719 68.335938 C 111.898438 72.335938 114.542969 76.320312 117.195312 80.308594 C 117.425781 80.652344 117.332031 81.121094 116.988281 81.347656 C 116.855469 81.433594 116.710938 81.472656 116.566406 81.472656 " fill-opacity="1" fill-rule="nonzero"/><path fill="rgb(43.919373%, 81.17981%, 97.24884%)" d="M 105.25 64.359375 C 105.003906 64.359375 104.761719 64.234375 104.617188 64.015625 C 97.078125 52.175781 96.683594 51.730469 96.390625 51.40625 C 96.175781 51.160156 96.007812 50.96875 94.664062 48.890625 C 94.441406 48.539062 94.539062 48.078125 94.886719 47.851562 C 95.234375 47.625 95.699219 47.726562 95.925781 48.078125 C 97.210938 50.054688 97.371094 50.234375 97.523438 50.410156 C 97.894531 50.832031 98.28125 51.269531 105.882812 63.203125 C 106.109375 63.554688 106.007812 64.023438 105.652344 64.242188 C 105.527344 64.324219 105.386719 64.359375 105.25 64.359375 " fill-opacity="1" fill-rule="nonzero"/><path fill="rgb(43.919373%, 81.17981%, 97.24884%)" d="M 244.9375 333.492188 C 244.636719 333.492188 244.355469 333.3125 244.234375 333.015625 L 238.503906 318.347656 C 238.351562 317.964844 238.539062 317.527344 238.929688 317.375 C 239.316406 317.21875 239.753906 317.414062 239.90625 317.800781 L 245.640625 332.464844 C 245.789062 332.855469 245.601562 333.292969 245.214844 333.441406 C 245.125 333.480469 245.03125 333.492188 244.9375 333.492188 " fill-opacity="1" fill-rule="nonzero"/><path fill="rgb(43.919373%, 81.17981%, 97.24884%)" d="M 139.816406 67.808594 C 139.507812 67.808594 139.226562 67.628906 139.113281 67.320312 C 136.59375 60.59375 134.09375 53.804688 131.6875 47.144531 C 131.550781 46.75 131.75 46.324219 132.144531 46.179688 C 132.535156 46.035156 132.96875 46.242188 133.105469 46.628906 C 135.511719 53.289062 138.003906 60.074219 140.523438 66.796875 C 140.667969 67.191406 140.472656 67.621094 140.078125 67.765625 C 139.996094 67.796875 139.902344 67.808594 139.816406 67.808594 " fill-opacity="1" fill-rule="nonzero"/><path fill="rgb(43.919373%, 81.17981%, 97.24884%)" d="M 130.417969 42.117188 C 130.109375 42.117188 129.816406 41.929688 129.707031 41.625 C 128.613281 38.550781 127.527344 35.476562 126.449219 32.40625 C 126.304688 32.015625 126.519531 31.585938 126.90625 31.449219 C 127.296875 31.308594 127.726562 31.515625 127.867188 31.910156 C 128.945312 34.984375 130.035156 38.050781 131.125 41.117188 C 131.269531 41.503906 131.0625 41.9375 130.667969 42.074219 C 130.585938 42.105469 130.496094 42.117188 130.417969 42.117188 " fill-opacity="1" fill-rule="nonzero"/><path fill="rgb(43.919373%, 81.17981%, 97.24884%)" d="M 219.664062 354.820312 C 219.308594 354.820312 218.988281 354.566406 218.925781 354.195312 L 215.546875 335.289062 C 215.472656 334.882812 215.75 334.488281 216.160156 334.417969 C 216.554688 334.34375 216.957031 334.613281 217.03125 335.027344 L 220.402344 353.933594 C 220.480469 354.347656 220.203125 354.734375 219.796875 354.804688 C 219.753906 354.816406 219.707031 354.820312 219.664062 354.820312 " fill-opacity="1" fill-rule="nonzero"/><path fill="rgb(43.919373%, 81.17981%, 97.24884%)" d="M 163.980469 61.125 C 163.621094 61.125 163.304688 60.863281 163.242188 60.5 L 161.128906 48.171875 C 161.058594 47.761719 161.335938 47.367188 161.75 47.300781 C 162.148438 47.238281 162.546875 47.507812 162.613281 47.914062 L 164.726562 60.242188 C 164.792969 60.65625 164.519531 61.042969 164.113281 61.113281 C 164.066406 61.121094 164.023438 61.125 163.980469 61.125 " fill-opacity="1" fill-rule="nonzero"/><path fill="rgb(43.919373%, 81.17981%, 97.24884%)" d="M 160.816406 42.632812 C 160.453125 42.632812 160.140625 42.375 160.070312 42.003906 C 159.015625 35.847656 157.953125 29.683594 156.886719 23.519531 C 156.8125 23.109375 157.085938 22.722656 157.496094 22.648438 C 157.902344 22.589844 158.296875 22.855469 158.367188 23.261719 C 159.429688 29.425781 160.496094 35.589844 161.554688 41.75 C 161.625 42.160156 161.355469 42.550781 160.941406 42.617188 C 160.898438 42.625 160.851562 42.632812 160.816406 42.632812 " fill-opacity="1" fill-rule="nonzero"/><path fill="rgb(43.919373%, 81.17981%, 97.24884%)" d="M 81.476562 115.613281 C 81.316406 115.613281 81.15625 115.5625 81.023438 115.460938 L 73.96875 110.222656 C 73.636719 109.972656 73.566406 109.503906 73.816406 109.171875 C 74.0625 108.839844 74.539062 108.773438 74.871094 109.015625 L 81.925781 114.253906 C 82.257812 114.503906 82.328125 114.972656 82.078125 115.304688 C 81.933594 115.507812 81.699219 115.613281 81.476562 115.613281 " fill-opacity="1" fill-rule="nonzero"/><path fill="rgb(43.919373%, 81.17981%, 97.24884%)" d="M 97.027344 96.105469 C 96.839844 96.105469 96.644531 96.03125 96.496094 95.886719 L 88.632812 88.117188 C 88.335938 87.824219 88.332031 87.347656 88.625 87.054688 C 88.917969 86.753906 89.394531 86.753906 89.691406 87.046875 L 97.5625 94.816406 C 97.855469 95.101562 97.863281 95.585938 97.566406 95.878906 C 97.417969 96.03125 97.222656 96.105469 97.027344 96.105469 " fill-opacity="1" fill-rule="nonzero"/><g clip-path="url(#clip-4)"><path fill="rgb(43.919373%, 81.17981%, 97.24884%)" d="M 185.324219 355.171875 C 184.910156 355.171875 184.570312 354.839844 184.570312 354.421875 L 184.570312 349.125 C 184.570312 348.707031 184.910156 348.371094 185.324219 348.371094 C 185.742188 348.371094 186.074219 348.707031 186.074219 349.125 L 186.074219 354.421875 C 186.074219 354.839844 185.742188 355.171875 185.324219 355.171875 " fill-opacity="1" fill-rule="nonzero"/></g><path fill="rgb(43.919373%, 81.17981%, 97.24884%)" d="M 155.808594 330.292969 C 155.746094 330.292969 155.691406 330.28125 155.625 330.269531 C 155.226562 330.175781 154.976562 329.769531 155.074219 329.363281 L 156.980469 321.464844 C 157.074219 321.0625 157.488281 320.8125 157.890625 320.914062 C 158.289062 321.007812 158.539062 321.414062 158.441406 321.8125 L 156.535156 329.71875 C 156.453125 330.0625 156.148438 330.292969 155.808594 330.292969 " fill-opacity="1" fill-rule="nonzero"/><path fill="rgb(43.919373%, 81.17981%, 97.24884%)" d="M 120.390625 339.9375 C 120.285156 339.9375 120.175781 339.921875 120.070312 339.871094 C 119.695312 339.6875 119.53125 339.246094 119.714844 338.867188 L 122.246094 333.492188 C 122.421875 333.117188 122.867188 332.953125 123.246094 333.136719 C 123.625 333.3125 123.78125 333.753906 123.605469 334.136719 L 121.074219 339.507812 C 120.949219 339.78125 120.671875 339.9375 120.390625 339.9375 " fill-opacity="1" fill-rule="nonzero"/><path fill="rgb(43.919373%, 81.17981%, 97.24884%)" d="M 107.636719 304.265625 C 107.480469 304.265625 107.324219 304.214844 107.191406 304.113281 C 106.855469 303.871094 106.785156 303.394531 107.035156 303.0625 L 111.378906 297.191406 C 111.621094 296.859375 112.097656 296.785156 112.425781 297.035156 C 112.761719 297.28125 112.832031 297.757812 112.589844 298.085938 L 108.246094 303.957031 C 108.09375 304.160156 107.871094 304.265625 107.636719 304.265625 " fill-opacity="1" fill-rule="nonzero"/><path fill="rgb(43.919373%, 81.17981%, 97.24884%)" d="M 248.265625 343.195312 C 247.945312 343.195312 247.652344 342.980469 247.550781 342.660156 L 246.101562 337.960938 C 245.984375 337.566406 246.203125 337.148438 246.597656 337.023438 C 247 336.898438 247.417969 337.121094 247.539062 337.523438 L 248.984375 342.21875 C 249.109375 342.617188 248.886719 343.035156 248.492188 343.15625 C 248.414062 343.179688 248.339844 343.195312 248.265625 343.195312 " fill-opacity="1" fill-rule="nonzero"/><path fill="rgb(43.919373%, 81.17981%, 97.24884%)" d="M 215.296875 330.945312 C 214.941406 330.945312 214.625 330.683594 214.558594 330.320312 L 213.484375 324.179688 C 213.410156 323.765625 213.6875 323.378906 214.09375 323.308594 C 214.5 323.234375 214.894531 323.511719 214.964844 323.917969 L 216.042969 330.0625 C 216.113281 330.46875 215.84375 330.863281 215.429688 330.933594 C 215.382812 330.9375 215.339844 330.945312 215.296875 330.945312 " fill-opacity="1" fill-rule="nonzero"/><path fill="rgb(43.919373%, 81.17981%, 97.24884%)" d="M 272.523438 312.796875 C 272.285156 312.796875 272.046875 312.683594 271.902344 312.46875 L 267.121094 305.53125 C 266.890625 305.191406 266.976562 304.722656 267.316406 304.492188 C 267.660156 304.253906 268.128906 304.332031 268.363281 304.683594 L 273.144531 311.617188 C 273.382812 311.957031 273.292969 312.425781 272.949219 312.664062 C 272.816406 312.75 272.667969 312.796875 272.523438 312.796875 " fill-opacity="1" fill-rule="nonzero"/><path fill="rgb(43.919373%, 81.17981%, 97.24884%)" d="M 277.738281 281.097656 C 279.117188 277.453125 280.90625 271.425781 281.824219 263.175781 C 293.949219 252.894531 303.929688 240.453125 311.019531 226.320312 L 311.050781 226.328125 C 304.859375 247.4375 293.210938 266.230469 277.738281 281.097656 Z M 215.878906 313.484375 C 217.664062 306.613281 219.042969 299.527344 220.070312 292.285156 C 229.246094 290.519531 238.089844 287.894531 246.480469 284.476562 C 246.492188 284.726562 246.511719 284.96875 246.492188 285.234375 C 246.148438 291.308594 252.570312 287.734375 258.816406 282.554688 C 263.105469 279 263.964844 277.289062 265.359375 275.019531 C 270.1875 272.101562 274.765625 268.878906 279.109375 265.398438 C 277.5 277.382812 274.089844 283.894531 273.976562 284.105469 L 274.296875 284.289062 C 258.058594 298.757812 238.027344 309.058594 215.878906 313.484375 Z M 191.394531 315.90625 C 183.449219 315.90625 175.6875 315.128906 168.148438 313.703125 C 166.304688 306.730469 164.894531 299.515625 163.855469 292.136719 C 173.109375 293.945312 182.6875 294.914062 192.457031 294.914062 C 201.078125 294.914062 209.527344 294.15625 217.726562 292.71875 C 216.65625 300.160156 215.242188 307.238281 213.46875 313.914062 C 206.296875 315.199219 198.929688 315.90625 191.394531 315.90625 Z M 127.746094 298.402344 C 127.578125 297.894531 127.414062 297.394531 127.214844 296.855469 C 125.128906 291.308594 129.121094 294.175781 131.03125 288.09375 C 132.855469 282.292969 124.582031 286.734375 131.695312 281.851562 C 141.082031 286.132812 151.097656 289.449219 161.542969 291.667969 C 162.550781 299.046875 163.929688 306.253906 165.734375 313.238281 C 152.128906 310.386719 139.332031 305.304688 127.746094 298.402344 Z M 222.453125 253.351562 C 226.183594 252.449219 229.828125 251.398438 233.382812 250.191406 C 233.4375 250.484375 233.515625 250.785156 233.644531 251.078125 C 235.558594 255.546875 240.070312 258.769531 239.894531 267.707031 C 239.753906 275.050781 244.519531 278.054688 246.039062 282.253906 C 237.894531 285.601562 229.300781 288.1875 220.390625 289.953125 C 221.945312 278.058594 222.574219 265.773438 222.453125 253.351562 Z M 219.519531 210.84375 C 229.078125 210.261719 231.941406 209.792969 232.253906 219.613281 C 232.605469 230.519531 236.941406 226.941406 237.988281 234.808594 C 238.765625 240.710938 234.859375 244.394531 233.664062 247.757812 C 230.015625 249.027344 226.261719 250.121094 222.433594 251.066406 C 222.214844 237.671875 221.148438 224.160156 219.519531 210.84375 Z M 279.9375 252.8125 C 279.9375 256.222656 279.761719 259.367188 279.472656 262.246094 C 277.347656 264.015625 275.148438 265.710938 272.894531 267.347656 C 272.90625 266.730469 272.90625 265.992188 272.886719 265.03125 C 272.722656 256.78125 277.4375 259.617188 279.9375 252.8125 Z M 277.625 229.945312 C 278.351562 233.617188 278.878906 237.121094 279.246094 240.453125 C 278.042969 236.683594 276.773438 233.066406 277.625 229.945312 Z M 313.105469 155.585938 L 307.152344 159.429688 L 306.769531 159.992188 L 305.761719 160.242188 C 305.597656 160.398438 305.378906 160.6875 305.160156 161.101562 C 304.433594 162.476562 303.675781 165.382812 304.519531 170.621094 L 304.570312 170.894531 C 304.570312 170.863281 304.578125 170.839844 304.582031 170.808594 C 306.042969 169.105469 306.273438 168.191406 308.304688 171.515625 C 310.234375 174.675781 313.289062 175.996094 315.160156 176.527344 C 315.742188 181.402344 316.082031 186.351562 316.082031 191.378906 C 316.082031 198.945312 315.367188 206.34375 314.0625 213.535156 C 313.351562 215.519531 312.574219 217.472656 311.746094 219.398438 C 311.519531 212.984375 310.46875 202.636719 306.695312 190.414062 C 307.234375 189.777344 307.804688 188.949219 308.480469 187.785156 C 312.296875 181.164062 317.335938 179.023438 309.691406 177.949219 C 308.222656 177.742188 306.957031 177.730469 305.84375 177.808594 C 306.902344 184.292969 306.449219 186.808594 302.835938 192.660156 C 303.597656 192.46875 304.238281 192.28125 304.839844 191.972656 C 309.476562 207.425781 309.675781 219.644531 309.546875 224.21875 C 302.910156 237.832031 293.546875 249.890625 282.136719 259.949219 C 282.679688 252.675781 282.5 243.90625 280.839844 233.722656 C 280.476562 231.515625 280.023438 229.199219 279.496094 226.796875 C 280.066406 226.21875 280.714844 225.667969 281.566406 225.15625 C 291.636719 219.074219 299.101562 204.589844 298.578125 200.835938 C 298.460938 199.964844 298.101562 199.753906 297.570312 199.882812 C 289.824219 209.589844 278.375 222.589844 278.238281 222.742188 L 277.230469 223.878906 L 275.824219 224.449219 C 275.410156 224.617188 274.152344 225.0625 272.511719 225.257812 C 272.054688 225.308594 271.582031 225.351562 271.074219 225.351562 C 267.910156 225.351562 265.089844 224.097656 263.136719 221.832031 C 260.578125 218.871094 259.765625 214.628906 260.628906 208.847656 C 260.867188 207.515625 261.179688 206.222656 261.539062 204.960938 C 261.625 204.640625 261.746094 204.339844 261.839844 204.019531 C 262.125 203.082031 262.429688 202.148438 262.773438 201.253906 C 262.867188 201.011719 262.972656 200.773438 263.066406 200.527344 C 263.449219 199.570312 263.84375 198.644531 264.265625 197.757812 C 264.320312 197.636719 264.375 197.53125 264.433594 197.414062 C 265.96875 194.226562 267.667969 191.503906 269.1875 189.363281 C 269.300781 189.207031 269.414062 189.042969 269.527344 188.886719 C 269.746094 188.59375 269.953125 188.300781 270.160156 188.023438 C 270.519531 187.554688 270.863281 187.109375 271.175781 186.722656 C 265.753906 184.53125 263.117188 180.601562 261.542969 178.25 C 261.46875 178.136719 261.382812 178.011719 261.300781 177.886719 C 260.929688 177.929688 260.527344 177.984375 260.109375 178.046875 C 259.382812 178.160156 258.574219 178.3125 257.722656 178.472656 C 256.996094 178.617188 256.222656 178.78125 255.429688 178.957031 C 255.398438 178.960938 255.367188 178.96875 255.339844 178.972656 C 254.5625 179.144531 253.761719 179.332031 252.957031 179.523438 C 252.945312 179.523438 252.933594 179.523438 252.925781 179.53125 C 252.125 179.726562 251.324219 179.925781 250.527344 180.125 C 250.445312 180.144531 250.371094 180.171875 250.289062 180.1875 C 249.511719 180.390625 248.734375 180.59375 247.988281 180.800781 C 245.898438 181.378906 243.996094 181.949219 242.59375 182.433594 C 242.429688 182.5 242.28125 182.554688 242.125 182.609375 C 241.992188 182.660156 241.855469 182.710938 241.730469 182.753906 C 241.605469 182.804688 241.492188 182.847656 241.378906 182.890625 C 241.242188 182.949219 241.113281 183.003906 240.996094 183.0625 C 240.921875 183.09375 240.847656 183.125 240.78125 183.15625 C 240.613281 183.238281 240.46875 183.316406 240.371094 183.386719 C 240.242188 183.472656 240.0625 183.625 239.835938 183.8125 C 239.769531 183.875 239.660156 183.960938 239.585938 184.03125 C 239.410156 184.1875 239.242188 184.332031 239.027344 184.519531 C 238.953125 184.589844 238.851562 184.675781 238.773438 184.746094 C 238.1875 185.265625 237.511719 185.878906 236.761719 186.574219 C 235.105469 188.09375 233.148438 189.910156 231.410156 191.535156 C 230.875 192.03125 230.375 192.492188 229.871094 192.960938 C 229.867188 192.96875 229.859375 192.976562 229.847656 192.980469 C 228.65625 194.089844 227.535156 195.132812 226.476562 196.105469 C 226.464844 196.117188 226.453125 196.128906 226.433594 196.140625 C 225.398438 197.097656 224.425781 197.996094 223.511719 198.828125 C 223.488281 198.851562 223.457031 198.875 223.429688 198.902344 C 222.546875 199.710938 221.714844 200.460938 220.929688 201.160156 C 220.847656 201.234375 220.761719 201.3125 220.679688 201.386719 C 218.125 203.675781 216.125 205.386719 214.527344 206.636719 C 214.519531 206.636719 214.511719 206.644531 214.511719 206.648438 C 213.910156 207.121094 213.359375 207.527344 212.867188 207.871094 C 212.851562 207.882812 212.835938 207.894531 212.820312 207.902344 C 212.332031 208.238281 211.886719 208.527344 211.488281 208.765625 C 211.46875 208.773438 211.449219 208.777344 211.4375 208.789062 C 211.03125 209.023438 210.660156 209.203125 210.320312 209.339844 C 207.726562 210.394531 205.332031 211.242188 202.75 211.414062 C 203.339844 211.789062 203.886719 212.234375 204.398438 212.726562 C 207.1875 212.203125 210.835938 211.257812 216.113281 211.03125 C 216.519531 211.011719 216.886719 210.988281 217.277344 210.96875 C 217.804688 215.292969 218.230469 219.542969 218.613281 223.753906 C 219.820312 225.3125 220.636719 227.109375 220.949219 229.15625 L 221 229.59375 C 221.242188 232.464844 220.742188 234.875 219.570312 236.816406 C 219.851562 241.835938 220.066406 246.792969 220.128906 251.617188 C 214.363281 252.917969 208.402344 253.808594 202.3125 254.335938 C 201.316406 255.328125 200.132812 256.148438 198.878906 256.855469 C 206.171875 256.429688 213.292969 255.429688 220.148438 253.902344 C 220.234375 266.832031 219.53125 279.042969 218.015625 290.421875 C 209.730469 291.910156 201.179688 292.691406 192.457031 292.691406 C 182.566406 292.691406 172.886719 291.679688 163.535156 289.800781 C 162.488281 281.722656 161.90625 273.449219 161.675781 265.066406 C 160.929688 265.167969 160.226562 265.261719 159.457031 265.367188 C 159.6875 273.480469 160.238281 281.496094 161.222656 289.339844 C 151.671875 287.253906 142.5 284.21875 133.851562 280.375 C 141.804688 274.820312 142.128906 272.183594 141.796875 268.246094 C 141.769531 267.929688 141.746094 267.683594 141.722656 267.464844 C 137.855469 267.691406 133.59375 267.785156 129.390625 267.820312 C 129.175781 267.820312 128.960938 267.820312 128.742188 267.820312 C 127.414062 267.832031 126.097656 267.839844 124.808594 267.839844 C 122.300781 267.839844 119.761719 267.820312 117.257812 267.816406 L 116.121094 267.800781 C 114.5625 267.796875 113.027344 267.789062 111.511719 267.785156 C 110.371094 267.777344 109.242188 267.777344 108.140625 267.777344 C 107.988281 267.777344 107.855469 267.777344 107.707031 267.777344 C 107.367188 267.777344 107.046875 267.777344 106.722656 267.777344 C 106.484375 267.785156 106.246094 267.785156 106.015625 267.785156 C 106.652344 273.117188 106.640625 276.546875 109.328125 280.582031 C 111.160156 283.34375 112.488281 285.996094 113.460938 288.476562 C 111.347656 286.785156 109.28125 285.039062 107.285156 283.210938 C 106.410156 281.214844 104.402344 275.964844 103.144531 267.808594 C 102.296875 267.820312 101.496094 267.832031 100.730469 267.847656 C 101.503906 272.796875 102.542969 276.746094 103.488281 279.601562 C 99.890625 276.027344 96.527344 272.226562 93.386719 268.242188 C 92.722656 268.316406 92.171875 268.402344 91.800781 268.503906 C 91.601562 268.554688 91.320312 268.640625 90.988281 268.742188 C 95.359375 274.386719 100.167969 279.675781 105.414062 284.507812 C 105.574219 284.851562 105.699219 285.109375 105.738281 285.175781 L 105.976562 285.050781 C 128.542969 305.59375 158.527344 318.132812 191.394531 318.132812 C 253.597656 318.132812 305.453125 273.203125 316.226562 214.140625 C 316.363281 213.753906 316.519531 213.371094 316.660156 212.976562 L 316.445312 212.902344 C 317.648438 205.90625 318.3125 198.71875 318.3125 191.378906 C 318.3125 178.949219 316.464844 166.945312 313.105469 155.585938 " fill-opacity="1" fill-rule="nonzero"/><path fill="rgb(43.919373%, 81.17981%, 97.24884%)" d="M 68.246094 171.933594 C 68.972656 171.433594 70.238281 171.203125 73.039062 171.515625 C 74.949219 171.722656 76.316406 172.140625 77.402344 172.585938 C 77.734375 174.925781 78.160156 177.246094 78.691406 179.53125 C 77.09375 183.378906 75.773438 187.117188 74.695312 190.691406 C 74.285156 190.382812 74.253906 189.625 74.253906 187.421875 C 74.253906 181.886719 75.648438 183.492188 70.609375 184.03125 C 69.273438 184.167969 68.058594 184.0625 66.960938 183.851562 C 67.207031 179.824219 67.625 175.84375 68.246094 171.933594 Z M 70.042969 215.886719 C 69.410156 214.214844 68.808594 212.53125 68.265625 210.832031 L 68.246094 210.835938 C 67.699219 207.375 67.324219 203.871094 67.066406 200.328125 C 68.929688 201.84375 70.277344 203.007812 71.523438 203.890625 C 70.707031 208.464844 70.269531 212.519531 70.042969 215.886719 Z M 81.066406 174.191406 C 80.777344 174.792969 80.492188 175.402344 80.214844 176 C 80.070312 175.257812 79.957031 174.5 79.839844 173.75 C 80.253906 173.949219 80.652344 174.097656 81.066406 174.191406 Z M 98.5625 121.628906 C 103.769531 116.257812 107.242188 119.125 111.929688 114.648438 C 116.625 110.179688 122.527344 100.703125 117.488281 102.496094 C 112.449219 104.277344 116.792969 104.816406 109.847656 106.066406 C 107.65625 106.460938 105.871094 106.625 104.316406 106.648438 C 108.609375 104.257812 114.332031 101.644531 121.625 99.382812 C 119.542969 100.585938 118.304688 102.09375 122.652344 102.796875 C 117.355469 110.773438 113.953125 119.773438 112.953125 129.351562 C 111.210938 131.210938 109.90625 132.003906 108.980469 130.921875 C 106.378906 127.886719 93.355469 126.992188 98.5625 121.628906 Z M 148.105469 74.605469 C 148.851562 74.894531 150.851562 75.683594 153.617188 76.839844 C 143.863281 81.351562 135.367188 87.574219 128.667969 95.023438 C 115.664062 98.0625 106.554688 102.445312 100.714844 106.050781 C 113.773438 92.21875 129.941406 81.347656 148.105469 74.605469 Z M 152.519531 73.085938 C 159.015625 71.101562 165.796875 69.625 172.789062 68.667969 C 173.1875 69.144531 173.65625 69.707031 174.175781 70.339844 C 167.945312 71.496094 162 73.28125 156.429688 75.613281 C 154.40625 74.746094 152.644531 74.019531 151.335938 73.484375 C 151.730469 73.355469 152.125 73.21875 152.519531 73.085938 Z M 190.863281 67.433594 C 196.082031 67.433594 201.214844 67.757812 206.25 68.339844 C 205.859375 68.804688 205.441406 69.316406 204.996094 69.875 C 200.433594 69.175781 195.75 68.785156 190.957031 68.785156 C 186.09375 68.785156 181.332031 69.1875 176.707031 69.90625 C 176.25 69.335938 175.824219 68.816406 175.429688 68.339844 C 180.480469 67.757812 185.625 67.433594 190.863281 67.433594 Z M 208.890625 68.660156 C 216.324219 69.675781 223.519531 71.296875 230.386719 73.472656 C 229.097656 73.992188 227.367188 74.710938 225.375 75.5625 C 219.769531 73.230469 213.785156 71.445312 207.539062 70.300781 C 208.039062 69.679688 208.496094 69.128906 208.890625 68.660156 Z M 257.195312 85.679688 C 258.042969 86.203125 258.882812 86.742188 259.714844 87.285156 C 260.304688 87.675781 260.90625 88.054688 261.488281 88.457031 C 262.496094 89.144531 263.488281 89.863281 264.476562 90.578125 C 268.914062 93.820312 273.050781 97.335938 276.828125 101.117188 C 276.011719 101.539062 274.835938 102.132812 273.550781 102.769531 C 268.933594 100.640625 263.417969 98.53125 256.988281 96.722656 C 256.136719 96.097656 254.976562 95.585938 253.542969 95.339844 C 246.78125 87.71875 238.125 81.367188 228.1875 76.789062 C 231.144531 75.550781 233.136719 74.769531 233.6875 74.5625 C 242.085938 77.480469 249.96875 81.222656 257.195312 85.679688 Z M 266.457031 105.894531 C 264.628906 106.230469 259.652344 102.152344 258.9375 99.609375 C 263.4375 100.988281 267.433594 102.496094 270.945312 104.035156 C 268.976562 104.960938 267.179688 105.753906 266.457031 105.894531 Z M 247.945312 117.585938 C 245.984375 116.375 243.980469 115.179688 241.898438 114.003906 C 241.804688 110.71875 240.082031 108.089844 243.539062 110 C 248.402344 112.683594 251.875 109.640625 252.21875 112.863281 C 252.558594 115.988281 252.851562 114.105469 247.945312 117.585938 Z M 234.164062 122.523438 C 232.949219 118.765625 232.085938 115.003906 230.519531 118.765625 C 228.957031 122.523438 233.820312 121.265625 227.742188 123.949219 C 226.03125 124.707031 224.132812 125.386719 222.285156 126.070312 C 220.433594 123.992188 218.53125 121.894531 216.570312 119.773438 C 219.757812 116.105469 221.921875 111.746094 222.703125 106.988281 C 224.402344 107.726562 226.070312 108.472656 227.699219 109.230469 C 224.878906 111.148438 223.976562 113.101562 226.871094 114.648438 C 231.214844 116.976562 233.292969 109.824219 235.207031 115.003906 C 237.117188 120.195312 237.460938 122.523438 240.765625 118.046875 C 241.152344 117.523438 241.410156 116.972656 241.589844 116.40625 C 243.082031 117.257812 244.535156 118.121094 245.964844 119 C 240.914062 122.578125 235.261719 125.921875 234.164062 122.523438 Z M 198.691406 101.542969 C 199.054688 101.269531 199.410156 101.023438 199.78125 100.679688 C 200.453125 100.058594 200.941406 99.503906 201.316406 98.996094 C 208.164062 101.191406 214.582031 103.570312 220.597656 106.105469 C 219.976562 110.566406 218.003906 114.675781 215.050781 118.136719 C 209.976562 112.714844 204.539062 107.183594 198.691406 101.542969 Z M 202.242188 126.773438 C 199.882812 118.308594 197.523438 110.5 195.289062 103.445312 C 195.777344 103.277344 196.273438 103.058594 196.761719 102.800781 C 202.757812 108.570312 208.347656 114.230469 213.535156 119.78125 C 210.484375 122.808594 206.628906 125.226562 202.242188 126.773438 Z M 190.863281 128.707031 C 187.800781 128.707031 184.839844 128.304688 182.058594 127.574219 C 184.414062 119.210938 186.777344 111.433594 189.019531 104.417969 C 190.460938 104.347656 191.804688 104.246094 193.105469 104.023438 C 195.613281 111.925781 197.9375 119.730469 200.101562 127.449219 C 197.1875 128.253906 194.089844 128.707031 190.863281 128.707031 Z M 179.921875 126.910156 C 175.339844 125.363281 171.3125 122.886719 168.152344 119.742188 C 172.554688 115.003906 177.246094 110.191406 182.222656 105.296875 C 182.722656 105.125 183.238281 104.972656 183.777344 104.886719 C 184.785156 104.730469 185.726562 104.636719 186.632812 104.566406 C 184.464844 111.375 182.195312 118.875 179.921875 126.910156 Z M 166.648438 118.105469 C 163.753906 114.699219 161.8125 110.664062 161.160156 106.28125 C 165.464844 104.496094 169.976562 102.78125 174.703125 101.160156 C 174.25 102.03125 173.386719 102.796875 172.03125 103.660156 C 168.460938 105.9375 167.945312 111.199219 171.011719 112.777344 C 171.1875 112.863281 171.363281 112.914062 171.539062 112.941406 C 169.871094 114.675781 168.242188 116.394531 166.648438 118.105469 Z M 126.761719 169.730469 C 122.152344 163.628906 118.734375 156.832031 116.773438 149.558594 C 122.589844 148.878906 127.992188 148.039062 127.558594 143.261719 C 126.863281 135.570312 120.960938 136.824219 128.773438 134.859375 C 136.589844 132.886719 144.921875 132.53125 141.621094 128.597656 C 138.523438 124.90625 145.0625 118.542969 139.429688 116.882812 C 145.417969 113.460938 151.953125 110.210938 159.054688 107.167969 C 159.855469 111.839844 162 116.125 165.132812 119.742188 C 148.582031 137.738281 136.113281 154.472656 126.761719 169.730469 Z M 168.039062 83.398438 C 165.394531 85.695312 163.242188 88.414062 161.648438 91.390625 C 150.433594 91.460938 140.742188 92.539062 132.496094 94.195312 C 139.070312 87.535156 147.210938 82.023438 156.429688 78.042969 C 159.757812 79.480469 163.773438 81.296875 168.039062 83.398438 Z M 179.351562 77.027344 C 175.898438 78.179688 172.726562 79.820312 169.972656 81.867188 C 166.128906 79.957031 162.480469 78.273438 159.292969 76.867188 C 164.5 74.84375 170.003906 73.296875 175.753906 72.308594 C 176.863281 73.699219 178.078125 75.292969 179.351562 77.027344 Z M 174.960938 84.433594 C 174.03125 83.9375 173.121094 83.46875 172.207031 83 C 174.738281 81.265625 177.609375 79.894531 180.710938 78.929688 C 181.125 79.519531 181.53125 80.109375 181.941406 80.707031 C 178.078125 82.097656 177.191406 82.804688 175.265625 84.199219 C 175.152344 84.28125 175.066406 84.351562 174.960938 84.433594 Z M 173.367188 93.921875 C 173.5625 94.285156 173.742188 94.660156 173.90625 95.070312 C 174.496094 96.5625 174.859375 97.71875 174.996094 98.707031 C 170.097656 100.367188 165.410156 102.113281 160.953125 103.953125 C 160.941406 103.644531 160.898438 103.351562 160.898438 103.046875 C 160.898438 99.722656 161.660156 96.5625 163.007812 93.644531 C 166.324219 93.640625 169.78125 93.734375 173.367188 93.921875 Z M 171.84375 91.597656 C 169.226562 91.472656 166.675781 91.398438 164.207031 91.378906 C 165.753906 88.792969 167.796875 86.472656 170.226562 84.484375 C 171.144531 84.945312 172.058594 85.414062 172.980469 85.898438 C 171.820312 86.78125 171.347656 87.179688 171.347656 87.179688 C 168.855469 88.40625 170.179688 89.464844 171.84375 91.597656 Z M 192.171875 77.441406 C 191.671875 77.574219 191.171875 77.710938 190.589844 77.890625 C 187.898438 78.71875 185.820312 79.382812 184.132812 79.945312 C 183.761719 79.394531 183.394531 78.851562 183.019531 78.304688 C 185.523438 77.722656 188.148438 77.386719 190.863281 77.386719 C 191.308594 77.386719 191.734375 77.421875 192.171875 77.441406 Z M 200.058594 76.328125 C 197.136719 75.578125 194.058594 75.152344 190.863281 75.152344 C 187.65625 75.152344 184.558594 75.578125 181.625 76.332031 C 180.480469 74.738281 179.359375 73.261719 178.3125 71.921875 C 182.429688 71.332031 186.644531 71.015625 190.957031 71.015625 C 195.195312 71.015625 199.34375 71.320312 203.390625 71.882812 C 202.335938 73.230469 201.210938 74.71875 200.058594 76.328125 Z M 217.472656 79.085938 C 213.945312 77.222656 214.714844 76.941406 206.417969 78.59375 C 206.390625 78.597656 206.375 78.597656 206.347656 78.605469 C 205.0625 77.992188 203.714844 77.472656 202.335938 77.015625 C 203.609375 75.269531 204.839844 73.675781 205.945312 72.273438 C 211.726562 73.253906 217.265625 74.792969 222.492188 76.816406 C 220.917969 77.511719 219.25 78.261719 217.472656 79.085938 Z M 206.832031 91.804688 C 211.503906 89.714844 213.152344 89.101562 214.546875 87.378906 C 215.710938 88.667969 216.738281 90.050781 217.601562 91.523438 C 214.144531 91.503906 210.546875 91.605469 206.832031 91.804688 Z M 218.773438 93.769531 C 220.085938 96.648438 220.835938 99.773438 220.835938 103.046875 C 220.835938 103.289062 220.800781 103.519531 220.792969 103.765625 C 215.007812 101.355469 208.867188 99.082031 202.332031 96.980469 C 202.625 95.9375 202.558594 95.121094 203.121094 94.285156 C 208.617188 93.875 213.832031 93.714844 218.773438 93.769531 Z M 220.179688 91.5625 C 219.019531 89.359375 217.558594 87.292969 215.8125 85.441406 C 215.917969 85.257812 216.011719 85.101562 216.125 84.902344 C 218.28125 80.964844 225.605469 82.867188 220.078125 80.34375 C 221.976562 79.476562 223.75 78.6875 225.367188 77.992188 C 235.003906 82.136719 243.464844 87.957031 250.203125 95.003906 C 241.609375 93.089844 231.613281 91.78125 220.179688 91.5625 Z M 221.210938 93.808594 C 230.460938 94.03125 238.726562 94.996094 246.039062 96.40625 C 244.617188 96.960938 243.101562 97.707031 241.460938 98.738281 C 237.292969 101.957031 239.546875 103.746094 233.125 106.425781 C 232.011719 106.894531 230.964844 107.375 230.015625 107.863281 C 227.734375 106.78125 225.386719 105.71875 222.972656 104.683594 C 223.003906 104.140625 223.066406 103.597656 223.066406 103.046875 C 223.066406 99.804688 222.390625 96.699219 221.210938 93.808594 Z M 143.53125 102.671875 C 139.886719 98.019531 137.980469 97.664062 132.421875 97.664062 C 131.113281 97.664062 130.128906 97.652344 129.332031 97.644531 C 129.457031 97.5 129.570312 97.351562 129.695312 97.210938 C 138.25 95.226562 148.496094 93.832031 160.582031 93.65625 C 159.363281 96.597656 158.667969 99.746094 158.667969 103.046875 C 158.667969 103.660156 158.722656 104.257812 158.773438 104.867188 C 150.589844 108.339844 143.15625 112.089844 136.40625 116.050781 C 131.550781 113.492188 136.695312 104.246094 127.382812 112.863281 C 122.4375 117.441406 118.589844 122.507812 115.632812 126.191406 C 117.039062 117.867188 120.339844 110.054688 125.152344 103.070312 C 135.691406 103.839844 135.722656 101.855469 136.070312 106.425781 C 136.414062 111.074219 139.710938 112.152344 143.1875 109.640625 C 146.660156 107.144531 147.179688 107.320312 143.53125 102.671875 Z M 64.53125 196.367188 C 64.53125 197.023438 64.546875 197.675781 64.554688 198.332031 C 64.605469 198.371094 64.644531 198.402344 64.6875 198.433594 C 65.082031 205.597656 66.109375 212.589844 67.652344 219.390625 C 68.859375 218.667969 69.898438 217.941406 70.722656 217.226562 C 71.296875 216.433594 71.835938 215.679688 72.355469 214.96875 C 72.574219 212.101562 72.933594 208.816406 73.566406 205.109375 C 73.847656 205.242188 74.128906 205.375 74.429688 205.484375 C 77.726562 206.738281 79.292969 201.191406 79.292969 201.191406 C 79.984375 196.722656 86.238281 195.472656 80.335938 192.429688 C 78.847656 191.671875 77.734375 191.324219 76.886719 191.148438 C 77.671875 188.570312 78.585938 185.902344 79.636719 183.179688 C 80.992188 188 82.820312 192.660156 85.003906 197.167969 C 85.535156 196.640625 86.105469 196.15625 86.714844 195.703125 C 84.277344 190.589844 82.351562 185.257812 81.023438 179.75 C 81.84375 177.808594 82.734375 175.839844 83.710938 173.847656 C 84.601562 173.480469 85.691406 172.855469 87.101562 171.871094 C 94.570312 166.683594 99.257812 167.578125 100.300781 161.320312 C 101.339844 155.058594 99.953125 154.523438 106.898438 151.488281 C 108.980469 150.574219 111.722656 150.167969 114.535156 149.828125 C 116.628906 157.769531 120.402344 165.179688 125.523438 171.777344 C 124.671875 173.199219 123.898438 174.574219 123.101562 175.964844 C 123.78125 176.207031 124.46875 176.515625 125.171875 176.941406 C 125.796875 175.84375 126.386719 174.769531 127.046875 173.660156 C 136.195312 184.605469 149.128906 193.125 164.230469 197.792969 C 163.621094 201.730469 163.070312 205.703125 162.558594 209.691406 C 163.285156 209.640625 164.054688 209.585938 164.824219 209.527344 C 165.316406 205.8125 165.816406 202.09375 166.386719 198.414062 C 174.121094 200.585938 182.371094 201.78125 190.957031 201.78125 C 191.238281 201.78125 191.507812 201.769531 191.792969 201.761719 C 191.792969 201.78125 191.796875 201.800781 191.804688 201.820312 C 191.839844 201.316406 191.878906 200.816406 191.992188 200.292969 C 192.042969 200.058594 192.148438 199.777344 192.21875 199.527344 C 192.21875 199.527344 192.21875 199.527344 192.21875 199.519531 C 192.378906 198.9375 192.5625 198.339844 192.8125 197.667969 C 193.050781 197.019531 193.328125 196.335938 193.640625 195.621094 C 192.699219 196.203125 191.679688 196.8125 190.605469 197.382812 C 190.757812 198.136719 190.933594 198.859375 191.113281 199.554688 C 191.0625 199.554688 191.007812 199.554688 190.957031 199.554688 C 189.148438 199.554688 187.359375 199.472656 185.585938 199.363281 C 184.554688 199.609375 183.480469 199.753906 182.367188 199.753906 C 180.390625 199.753906 178.5625 199.285156 176.921875 198.402344 C 173.441406 197.851562 170.035156 197.128906 166.738281 196.199219 C 167.3125 192.554688 167.941406 188.949219 168.59375 185.363281 C 167.828125 184.863281 167.183594 184.28125 166.644531 183.636719 C 165.921875 187.585938 165.222656 191.554688 164.582031 195.566406 C 149.75 190.921875 137.085938 182.472656 128.25 171.640625 C 137.609375 156.175781 150.113281 139.371094 166.65625 121.375 C 170.070312 124.757812 174.40625 127.410156 179.328125 129.054688 C 176.921875 137.679688 174.53125 146.929688 172.289062 156.582031 C 173.078125 155.78125 174.039062 154.902344 175.191406 153.953125 C 177.207031 145.484375 179.328125 137.359375 181.457031 129.714844 C 184.433594 130.507812 187.59375 130.933594 190.863281 130.933594 C 194.296875 130.933594 197.605469 130.457031 200.714844 129.59375 C 201.597656 132.792969 202.382812 135.929688 203.207031 139.09375 C 203.816406 138.949219 204.417969 138.777344 205.027344 138.664062 C 205.152344 138.636719 205.289062 138.613281 205.414062 138.589844 C 204.5625 135.296875 203.699219 132.054688 202.832031 128.917969 C 207.570312 127.265625 211.738281 124.667969 215.050781 121.402344 C 216.769531 123.253906 218.429688 125.089844 220.066406 126.921875 C 216.285156 128.417969 213.230469 130.050781 213.328125 132.53125 C 213.398438 134.125 214.6875 135.371094 215.804688 136.402344 C 219.058594 135.683594 222.605469 134.875 226.246094 134.03125 C 227.058594 133.84375 227.875 133.648438 228.695312 133.457031 C 239.390625 130.945312 250.496094 128.199219 257.058594 126.410156 L 257.0625 126.410156 C 258.085938 126.128906 259.011719 125.871094 259.796875 125.640625 C 260.296875 125.488281 260.742188 125.355469 261.136719 125.238281 C 261.167969 125.226562 261.207031 125.214844 261.238281 125.199219 C 261.625 125.082031 261.957031 124.976562 262.207031 124.882812 C 262.722656 124.519531 263.386719 124.105469 264.371094 123.503906 C 264.726562 123.285156 265.152344 123.023438 265.597656 122.746094 C 266.242188 122.347656 267.007812 121.859375 267.828125 121.332031 C 268.644531 120.808594 269.519531 120.226562 270.492188 119.5625 C 270.523438 119.535156 270.550781 119.519531 270.585938 119.5 C 273.84375 117.253906 277.945312 114.203125 282.636719 110.175781 C 282.636719 110.179688 282.636719 110.179688 282.636719 110.179688 C 283.753906 109.222656 284.894531 108.214844 286.070312 107.144531 C 279.804688 100.136719 272.800781 93.796875 265.136719 88.3125 C 264.425781 87.800781 263.71875 87.285156 262.992188 86.792969 C 262.171875 86.230469 261.324219 85.683594 260.484375 85.132812 C 259.871094 84.738281 259.261719 84.339844 258.644531 83.957031 C 243.949219 74.746094 227.246094 68.460938 209.34375 65.917969 L 208.761719 65.394531 C 208.71875 65.449219 208.585938 65.59375 208.410156 65.800781 C 202.839844 65.050781 197.167969 64.625 191.394531 64.625 C 185.28125 64.625 179.269531 65.085938 173.378906 65.925781 C 173.148438 65.664062 172.964844 65.457031 172.910156 65.394531 L 172.144531 66.082031 C 165.140625 67.152344 158.332031 68.824219 151.753906 70.996094 C 128.027344 78.269531 107.980469 91.980469 94.558594 109.578125 C 75.816406 131.671875 64.480469 160.222656 64.480469 191.378906 C 64.480469 192.554688 64.535156 193.714844 64.566406 194.882812 C 64.5625 195.378906 64.53125 195.867188 64.53125 196.367188 " fill-opacity="1" fill-rule="nonzero"/><path fill="rgb(100%, 54.119873%, 54.119873%)" d="M 116.246094 207.921875 C 116.246094 207.921875 115.976562 207.90625 115.503906 207.871094 C 115.011719 207.851562 114.472656 207.828125 113.683594 207.863281 C 112.15625 207.921875 110.09375 208.285156 108.082031 208.972656 C 106.066406 209.628906 104.109375 210.574219 102.667969 211.320312 C 101.21875 212.070312 100.28125 212.621094 100.28125 212.621094 C 100.238281 212.644531 100.179688 212.632812 100.15625 212.589844 C 100.128906 212.550781 100.144531 212.5 100.179688 212.46875 C 100.179688 212.46875 101.019531 211.78125 102.34375 210.804688 C 103.671875 209.84375 105.488281 208.578125 107.480469 207.558594 C 109.460938 206.511719 111.648438 205.753906 113.359375 205.417969 C 114.1875 205.242188 115.007812 205.148438 115.472656 205.097656 C 115.945312 205.058594 116.214844 205.035156 116.214844 205.035156 C 117.011719 204.960938 117.71875 205.546875 117.789062 206.347656 C 117.863281 207.144531 117.277344 207.851562 116.472656 207.921875 C 116.40625 207.925781 116.324219 207.925781 116.246094 207.921875 " fill-opacity="1" fill-rule="nonzero"/><path fill="rgb(100%, 54.119873%, 54.119873%)" d="M 264.058594 174.851562 C 264.058594 174.851562 263.824219 174.367188 263.488281 173.523438 C 263.167969 172.714844 262.824219 171.613281 262.585938 170.507812 C 262.089844 168.285156 262.183594 166.082031 262.183594 166.082031 C 262.183594 166.03125 262.226562 165.988281 262.277344 165.996094 C 262.316406 165.996094 262.351562 166.019531 262.359375 166.058594 C 262.359375 166.058594 262.953125 168.164062 264.027344 169.96875 C 264.550781 170.875 265.148438 171.722656 265.636719 172.308594 C 266.144531 172.886719 266.480469 173.273438 266.480469 173.273438 C 267.015625 173.878906 266.953125 174.804688 266.34375 175.332031 C 265.738281 175.863281 264.808594 175.800781 264.28125 175.195312 C 264.195312 175.09375 264.121094 174.988281 264.0625 174.867188 L 264.058594 174.851562 " fill-opacity="1" fill-rule="nonzero"/><path fill="rgb(100%, 54.119873%, 54.119873%)" d="M 273.53125 218.753906 C 273.457031 218.753906 273.375 218.734375 273.300781 218.683594 C 272.433594 218.148438 271.457031 217.539062 270.660156 216.71875 C 269.757812 215.800781 269.226562 214.703125 269.15625 213.648438 C 269.027344 211.53125 270.617188 209.796875 272.015625 208.527344 C 273.125 207.527344 274.347656 206.605469 275.808594 206.605469 C 275.8125 206.605469 275.824219 206.605469 275.832031 206.605469 C 277.023438 206.617188 278.0625 207.246094 278.921875 207.863281 C 279.824219 208.515625 280.683594 209.234375 281.472656 210.011719 C 281.640625 210.179688 281.648438 210.449219 281.476562 210.625 C 281.316406 210.792969 281.039062 210.800781 280.863281 210.628906 C 280.105469 209.886719 279.285156 209.191406 278.414062 208.570312 C 277.667969 208.03125 276.773438 207.480469 275.824219 207.46875 C 275.820312 207.46875 275.8125 207.46875 275.808594 207.46875 C 274.640625 207.46875 273.574219 208.289062 272.597656 209.171875 C 271.34375 210.3125 269.917969 211.84375 270.027344 213.589844 C 270.078125 214.441406 270.523438 215.34375 271.28125 216.121094 C 272.003906 216.859375 272.9375 217.441406 273.765625 217.953125 C 273.964844 218.078125 274.027344 218.347656 273.902344 218.546875 C 273.820312 218.679688 273.675781 218.753906 273.53125 218.753906 " fill-opacity="1" fill-rule="nonzero"/><path fill="rgb(100%, 54.119873%, 54.119873%)" d="M 182.046875 190.972656 C 181.613281 190.972656 181.21875 190.898438 180.875 190.742188 C 180.265625 190.472656 179.820312 189.964844 179.464844 189.5625 L 176.957031 186.753906 C 176.796875 186.574219 176.8125 186.296875 176.996094 186.140625 C 177.164062 185.984375 177.441406 185.996094 177.605469 186.179688 L 180.117188 188.988281 C 180.4375 189.34375 180.792969 189.75 181.226562 189.953125 C 181.609375 190.121094 182.078125 190.152344 182.636719 190.050781 C 183.78125 189.84375 184.847656 189.164062 185.757812 188.542969 C 186.390625 188.105469 187.027344 187.628906 187.324219 186.992188 C 187.898438 185.734375 187.054688 184.230469 186.238281 183.191406 L 185.851562 182.703125 C 184.960938 181.597656 184.039062 180.453125 183.933594 178.988281 C 183.914062 178.75 184.097656 178.542969 184.332031 178.523438 C 184.570312 178.503906 184.777344 178.6875 184.796875 178.925781 C 184.886719 180.121094 185.71875 181.152344 186.527344 182.160156 L 186.921875 182.660156 C 187.886719 183.886719 188.863281 185.695312 188.113281 187.347656 C 187.722656 188.195312 186.976562 188.75 186.25 189.257812 C 185.269531 189.933594 184.109375 190.671875 182.785156 190.902344 C 182.527344 190.953125 182.285156 190.972656 182.046875 190.972656 " fill-opacity="1" fill-rule="nonzero"/><path fill="rgb(100%, 54.119873%, 54.119873%)" d="M 175.039062 179.199219 C 174.488281 179.199219 173.992188 179.082031 173.5625 178.855469 C 172.804688 178.449219 172.347656 177.742188 171.902344 177.058594 C 171.46875 176.394531 171.0625 175.777344 170.433594 175.511719 C 170.214844 175.417969 170.109375 175.164062 170.203125 174.945312 C 170.296875 174.71875 170.546875 174.617188 170.773438 174.710938 C 171.644531 175.074219 172.140625 175.84375 172.628906 176.582031 C 173.027344 177.203125 173.410156 177.785156 173.976562 178.085938 C 174.546875 178.390625 175.316406 178.410156 176.273438 178.136719 C 177.253906 177.855469 178.199219 177.371094 179.109375 176.910156 C 179.632812 176.640625 180.152344 176.339844 180.296875 175.894531 C 180.398438 175.582031 180.292969 175.199219 180.199219 174.898438 C 179.789062 173.660156 179.03125 172.539062 178.292969 171.464844 L 175.78125 167.777344 C 175.640625 167.582031 175.691406 167.308594 175.894531 167.175781 C 176.085938 167.046875 176.355469 167.097656 176.496094 167.289062 L 179.011719 170.976562 C 179.777344 172.101562 180.582031 173.273438 181.023438 174.632812 C 181.15625 175.050781 181.292969 175.601562 181.125 176.152344 C 180.867188 176.984375 180.015625 177.421875 179.503906 177.679688 C 178.554688 178.167969 177.574219 178.667969 176.511719 178.96875 C 175.988281 179.125 175.492188 179.199219 175.039062 179.199219 " fill-opacity="1" fill-rule="nonzero"/><path fill="rgb(100%, 54.119873%, 54.119873%)" d="M 202.4375 203.683594 C 202.003906 203.683594 201.585938 203.597656 201.230469 203.515625 L 198 202.839844 C 197.761719 202.789062 197.613281 202.558594 197.664062 202.324219 C 197.714844 202.085938 197.945312 201.9375 198.175781 201.988281 L 201.410156 202.667969 C 201.878906 202.769531 202.417969 202.886719 202.875 202.761719 C 203.238281 202.664062 203.609375 202.40625 203.96875 201.992188 C 204.957031 200.847656 205.425781 199.183594 205.296875 197.292969 C 205.277344 197.03125 205.238281 196.753906 205.132812 196.535156 C 205.007812 196.273438 204.75 196.054688 204.460938 195.816406 C 203.265625 194.839844 202.03125 193.902344 200.789062 193.03125 C 200.59375 192.894531 200.546875 192.625 200.683594 192.425781 C 200.816406 192.230469 201.089844 192.179688 201.285156 192.324219 C 202.542969 193.207031 203.796875 194.15625 205.011719 195.148438 C 205.371094 195.433594 205.703125 195.734375 205.910156 196.148438 C 206.089844 196.503906 206.136719 196.878906 206.160156 197.238281 C 206.3125 199.351562 205.765625 201.242188 204.625 202.5625 C 204.148438 203.109375 203.636719 203.457031 203.101562 203.601562 C 202.882812 203.660156 202.65625 203.683594 202.4375 203.683594 " fill-opacity="1" fill-rule="nonzero"/><path fill="rgb(100%, 54.119873%, 54.119873%)" d="M 175.273438 167.058594 C 175.152344 167.058594 175.046875 167.015625 174.960938 166.925781 C 174.789062 166.757812 174.796875 166.480469 174.964844 166.3125 C 175.660156 165.636719 176.582031 165.53125 177.476562 165.429688 C 178.011719 165.367188 178.511719 165.304688 178.949219 165.136719 C 180.023438 164.71875 180.78125 163.503906 180.804688 162.175781 C 180.824219 160.707031 180.058594 159.417969 179.410156 158.589844 C 179.265625 158.402344 179.289062 158.132812 179.484375 157.984375 C 179.664062 157.832031 179.941406 157.863281 180.089844 158.058594 C 180.824219 158.992188 181.695312 160.460938 181.671875 162.1875 C 181.644531 163.859375 180.660156 165.398438 179.269531 165.945312 C 178.726562 166.15625 178.140625 166.226562 177.578125 166.289062 C 176.796875 166.382812 176.054688 166.464844 175.574219 166.933594 C 175.484375 167.015625 175.378906 167.058594 175.273438 167.058594 " fill-opacity="1" fill-rule="nonzero"/><path fill="rgb(100%, 54.119873%, 54.119873%)" d="M 109.597656 190.585938 C 108.519531 190.585938 107.472656 190.246094 106.722656 189.40625 C 106.566406 189.226562 106.578125 188.957031 106.753906 188.792969 C 106.9375 188.632812 107.207031 188.648438 107.367188 188.824219 C 108.488281 190.070312 110.644531 189.863281 112.207031 189.019531 C 112.996094 188.585938 113.742188 188.011719 114.457031 187.453125 C 115.25 186.839844 116.066406 186.210938 116.988281 185.734375 L 117.320312 185.566406 C 117.941406 185.257812 118.527344 184.964844 118.773438 184.449219 C 119.03125 183.914062 118.824219 183.269531 118.546875 182.84375 C 118.378906 182.585938 118.164062 182.355469 117.933594 182.140625 C 117.757812 182.203125 117.558594 182.136719 117.445312 181.980469 L 117.019531 181.378906 C 116.894531 181.203125 116.917969 180.964844 117.070312 180.816406 C 117.226562 180.664062 117.464844 180.652344 117.640625 180.785156 C 118.195312 181.207031 118.835938 181.695312 119.273438 182.367188 C 119.792969 183.160156 119.902344 184.101562 119.554688 184.820312 C 119.1875 185.609375 118.402344 185.996094 117.707031 186.339844 L 117.386719 186.503906 C 116.535156 186.941406 115.789062 187.523438 114.988281 188.144531 C 114.242188 188.71875 113.472656 189.3125 112.621094 189.777344 C 111.734375 190.265625 110.644531 190.585938 109.597656 190.585938 " fill-opacity="1" fill-rule="nonzero"/><path fill="rgb(100%, 54.119873%, 54.119873%)" d="M 152.996094 251.949219 C 152.976562 251.949219 152.949219 251.941406 152.933594 251.941406 C 152.695312 251.90625 152.53125 251.6875 152.5625 251.449219 C 153.910156 242.554688 152.949219 233.398438 149.800781 224.96875 C 149.71875 224.742188 149.832031 224.492188 150.054688 224.40625 C 150.273438 224.324219 150.53125 224.4375 150.613281 224.664062 C 153.816406 233.230469 154.785156 242.542969 153.421875 251.582031 C 153.390625 251.792969 153.207031 251.949219 152.996094 251.949219 " fill-opacity="1" fill-rule="nonzero"/><path fill="rgb(100%, 54.119873%, 54.119873%)" d="M 100.449219 239.5 C 97.917969 239.5 95.386719 239.261719 92.90625 238.773438 C 92.667969 238.730469 92.515625 238.5 92.558594 238.269531 C 92.605469 238.03125 92.824219 237.878906 93.074219 237.925781 C 103.101562 239.894531 113.828125 237.738281 122.515625 232.003906 C 124.976562 230.382812 126.925781 228.707031 128.480469 226.882812 C 132.058594 222.683594 134.011719 217.007812 133.839844 211.3125 C 133.824219 211.070312 134.011719 210.867188 134.257812 210.863281 C 134.515625 210.867188 134.695312 211.042969 134.703125 211.28125 C 134.882812 217.1875 132.859375 223.085938 129.136719 227.445312 C 127.535156 229.332031 125.527344 231.058594 122.996094 232.730469 C 116.273438 237.160156 108.34375 239.5 100.449219 239.5 " fill-opacity="1" fill-rule="nonzero"/><path fill="rgb(100%, 54.119873%, 54.119873%)" d="M 339.304688 131.039062 L 303.304688 154.257812 C 303.304688 154.257812 295.796875 156.996094 298.183594 171.746094 C 300.558594 184.589844 301.035156 183.636719 296.035156 191.371094 C 289.128906 200.648438 273.40625 218.492188 273.40625 218.492188 C 273.40625 218.492188 272.347656 218.921875 271.074219 218.921875 C 268.792969 218.921875 265.832031 217.550781 266.976562 209.929688 C 269.121094 198.03125 277.691406 188.996094 277.691406 188.996094 C 277.691406 188.996094 280.199219 183.398438 273.644531 180.785156 C 267.097656 178.167969 266.738281 171.863281 263.285156 171.390625 C 263.117188 171.363281 262.910156 171.351562 262.679688 171.351562 C 257.972656 171.351562 240.007812 175.675781 236.601562 178.167969 C 233.03125 180.785156 211.710938 201.835938 207.894531 203.382812 C 205.753906 204.253906 203.683594 205.046875 201.90625 205.046875 C 200.519531 205.046875 199.3125 204.566406 198.371094 203.265625 C 196.226562 200.292969 213.230469 174.113281 217.039062 171.851562 C 220.847656 169.59375 238.269531 159.015625 240.175781 156.636719 C 231.363281 161.394531 215.164062 170.675781 215.046875 171.269531 C 214.925781 171.863281 196.109375 186.734375 192.179688 188.996094 C 189.511719 190.527344 185.742188 193.320312 182.367188 193.320312 C 180.773438 193.320312 179.265625 192.691406 178.003906 191.015625 C 174.070312 185.785156 185.203125 179.871094 187.375 178.535156 C 189.722656 177.089844 207.363281 163.273438 211.949219 159.96875 C 215.859375 157.152344 229.339844 150.566406 229.339844 150.566406 C 229.339844 150.566406 212.320312 157.957031 210.890625 159.027344 C 209.457031 160.097656 188.671875 175.8125 186.289062 177.359375 C 184.753906 178.355469 179.140625 180.726562 175.117188 180.726562 C 172.890625 180.726562 171.15625 180 170.855469 177.929688 C 170.019531 172.101562 178.554688 168.585938 180.410156 167.246094 C 182.460938 165.769531 204.824219 152.445312 208.054688 151.078125 C 211.519531 149.617188 223.5 147.476562 223.5 147.476562 C 223.5 147.476562 209.207031 149.164062 207.183594 150.355469 C 205.15625 151.542969 191.628906 156.949219 181.042969 165.253906 C 179.726562 165.9375 178.636719 166.214844 177.765625 166.214844 C 175.886719 166.214844 175.023438 164.917969 175.023438 163.535156 C 175.023438 161.511719 191.824219 147.714844 206.230469 144.976562 C 220.640625 142.242188 264.359375 131.777344 265.667969 130.34375 C 266.933594 128.960938 288.652344 118.8125 314.039062 86.085938 C 313.550781 85.464844 313.074219 84.832031 312.574219 84.21875 C 291.316406 111.777344 272.75 123.199219 266.519531 127.015625 C 265.292969 127.773438 264.664062 128.148438 264.25 128.503906 C 260.449219 130.238281 221.25 139.769531 205.796875 142.707031 C 192.292969 145.273438 172.710938 159.203125 172.710938 163.535156 C 172.710938 165.398438 173.597656 166.9375 175.015625 167.796875 C 171.707031 169.96875 167.867188 173.386719 168.566406 178.253906 C 168.769531 179.695312 169.820312 183.035156 175.117188 183.035156 C 175.90625 183.035156 176.734375 182.960938 177.574219 182.828125 C 176.261719 184.25 175.308594 185.777344 174.976562 187.4375 C 174.628906 189.195312 175.027344 190.910156 176.148438 192.398438 C 177.742188 194.515625 179.890625 195.636719 182.367188 195.636719 C 185.769531 195.636719 189.109375 193.574219 191.796875 191.921875 C 192.335938 191.59375 192.855469 191.273438 193.332031 190.996094 C 196.019531 189.445312 204.066406 183.207031 206.46875 181.328125 C 206.550781 181.257812 206.636719 181.195312 206.71875 181.128906 C 201.835938 188.398438 196.855469 197.160156 196.027344 201.136719 C 195.914062 201.679688 195.570312 203.339844 196.492188 204.617188 C 197.789062 206.414062 199.65625 207.363281 201.90625 207.363281 C 204.074219 207.363281 206.296875 206.53125 208.765625 205.53125 C 211.363281 204.476562 218.296875 198.113281 228.59375 188.523438 C 232.785156 184.621094 236.746094 180.925781 237.96875 180.03125 C 240.800781 177.960938 258.328125 173.667969 262.679688 173.667969 C 262.792969 173.667969 262.886719 173.667969 262.964844 173.679688 C 263.480469 173.75 264.238281 174.867188 264.964844 175.957031 C 266.457031 178.179688 268.5 181.222656 272.785156 182.929688 C 274.253906 183.519531 275.199219 184.300781 275.605469 185.257812 C 276.019531 186.242188 275.8125 187.285156 275.667969 187.78125 C 273.972656 189.675781 266.714844 198.324219 264.695312 209.515625 C 264.019531 214.023438 264.535156 217.144531 266.257812 219.148438 C 267.433594 220.511719 269.101562 221.234375 271.074219 221.234375 C 272.75 221.234375 274.128906 220.695312 274.277344 220.636719 L 274.785156 220.429688 L 275.144531 220.019531 C 275.789062 219.285156 291.007812 202 297.894531 192.75 L 297.984375 192.625 L 298.171875 192.332031 C 302.847656 185.113281 302.953125 184.445312 301.0625 174.53125 C 300.878906 173.566406 300.679688 172.503906 300.460938 171.320312 C 298.460938 158.953125 303.914062 156.507812 304.144531 156.414062 L 304.332031 156.332031 L 304.558594 156.199219 L 340.078125 133.292969 C 339.8125 132.542969 339.574219 131.785156 339.304688 131.039062 " fill-opacity="1" fill-rule="nonzero"/><path fill="rgb(100%, 54.119873%, 54.119873%)" d="M 216.886719 229.855469 L 216.875 229.777344 C 216.113281 224.773438 210.972656 221.808594 202.726562 221.558594 C 203.066406 220.863281 203.195312 220.042969 203.101562 219.066406 C 202.71875 215.011719 199.199219 213.847656 194.988281 212.839844 C 194.285156 212.671875 192.929688 212.453125 189.222656 212.453125 C 181.382812 212.453125 168.003906 213.421875 160.011719 214.003906 C 157.925781 214.152344 156.246094 214.273438 155.1875 214.339844 C 154.925781 214.359375 154.65625 214.367188 154.378906 214.367188 C 150.65625 214.367188 145.964844 212.964844 142.191406 211.839844 C 140.09375 211.210938 138.28125 210.675781 136.921875 210.460938 C 131 209.523438 120.222656 207.449219 115.582031 206.085938 C 116.078125 205.796875 116.59375 205.515625 117.03125 205.28125 C 118.859375 204.265625 120.933594 203.121094 122.453125 201.773438 C 125.234375 199.300781 130.417969 194.703125 127.617188 186.054688 L 127.550781 185.871094 L 127.464844 185.703125 C 125.289062 181.527344 122.570312 179.414062 119.382812 179.414062 C 114.644531 179.414062 110.214844 184.257812 106.296875 188.523438 C 103.292969 191.804688 99.113281 193.792969 95.429688 195.546875 C 91.664062 197.335938 88.40625 198.882812 86.699219 201.53125 C 84.117188 205.523438 82.550781 207.945312 73.796875 219.992188 C 66.222656 226.992188 46.261719 232.484375 28.699219 236.171875 C 28.921875 236.917969 29.199219 237.640625 29.4375 238.382812 C 47.351562 234.59375 67.761719 228.898438 75.539062 221.53125 C 84.34375 209.421875 85.988281 206.898438 88.644531 202.78125 C 91.511719 198.34375 101.746094 196.925781 108.007812 190.089844 C 111.941406 185.789062 115.796875 181.722656 119.382812 181.722656 C 121.5 181.722656 123.523438 183.144531 125.410156 186.765625 C 127.566406 193.40625 124.433594 196.925781 120.917969 200.046875 C 117.394531 203.171875 109.574219 205.515625 112.3125 207.277344 C 115.042969 209.035156 132.839844 212.15625 136.558594 212.738281 C 140.09375 213.304688 148.214844 216.675781 154.378906 216.675781 C 154.699219 216.675781 155.019531 216.671875 155.332031 216.652344 C 160.359375 216.339844 179.390625 214.761719 189.222656 214.761719 C 191.628906 214.761719 193.484375 214.855469 194.441406 215.085938 C 199.335938 216.257812 200.601562 217.234375 200.800781 219.285156 C 200.996094 221.339844 199.699219 222.445312 189.722656 223.421875 C 154.730469 227.039062 155.820312 227.390625 156.117188 227.390625 C 156.410156 227.390625 200.40625 223.875 200.40625 223.875 C 200.40625 223.875 200.847656 223.847656 201.554688 223.847656 C 204.777344 223.847656 213.707031 224.375 214.589844 230.125 C 214.914062 234.042969 213.109375 234.695312 211.875 234.695312 C 211.265625 234.695312 210.796875 234.539062 210.796875 234.539062 C 210.796875 234.539062 209.023438 230.800781 203.316406 230.800781 C 202.5625 230.800781 201.742188 230.863281 200.851562 231.015625 C 156.898438 238.238281 158.070312 239.011719 158.070312 239.011719 C 158.070312 239.011719 179.21875 235.753906 185.570312 234.894531 C 190.511719 234.230469 197.789062 232.097656 203.109375 232.097656 C 206.261719 232.097656 208.722656 232.855469 209.601562 235.109375 C 211.949219 241.160156 199.128906 242.84375 199.128906 242.84375 L 156.988281 248.894531 C 157.074219 249.03125 157.5 249.101562 158.246094 249.101562 C 162.050781 249.101562 174.101562 247.414062 191.171875 244.921875 C 192.304688 244.757812 193.332031 244.683594 194.242188 244.683594 C 197.210938 244.683594 198.929688 245.496094 198.949219 246.730469 C 199.011719 250.496094 194.929688 251.90625 189.652344 253.859375 C 184.371094 255.8125 162.632812 258.382812 147.769531 260.460938 C 142.140625 261.257812 133.632812 261.40625 124.808594 261.40625 C 119.15625 261.40625 113.378906 261.34375 108.140625 261.34375 C 99.960938 261.34375 93.105469 261.5 90.148438 262.289062 C 86.054688 263.378906 66.480469 270.949219 48.625 277.964844 C 49.0625 278.625 49.503906 279.28125 49.949219 279.933594 C 67.511719 273.035156 86.8125 265.566406 90.742188 264.523438 C 93.601562 263.757812 101.140625 263.660156 108.140625 263.660156 C 110.703125 263.660156 113.394531 263.671875 116.148438 263.691406 C 119.003906 263.703125 121.925781 263.722656 124.808594 263.722656 C 132.917969 263.722656 142.023438 263.601562 148.09375 262.75 C 151.273438 262.308594 154.773438 261.839844 158.359375 261.355469 C 171.984375 259.535156 186.070312 257.652344 190.457031 256.023438 L 190.875 255.867188 C 196.257812 253.882812 201.347656 252 201.265625 246.691406 C 201.261719 246.316406 201.183594 245.640625 200.765625 244.925781 C 203.554688 244.414062 209.300781 242.957031 211.398438 239.425781 C 211.851562 238.664062 212.113281 237.84375 212.183594 236.996094 C 213.484375 236.921875 214.640625 236.402344 215.472656 235.503906 C 216.621094 234.257812 217.101562 232.378906 216.894531 229.933594 L 216.886719 229.855469 " fill-opacity="1" fill-rule="nonzero"/></svg>