<?xml version="1.0" encoding="UTF-8"?><svg xmlns="http://www.w3.org/2000/svg" xmlns:xlink="http://www.w3.org/1999/xlink" contentScriptType="text/ecmascript" width="135" zoomAndPan="magnify" contentStyleType="text/css" viewBox="0 0 135 135.000003" height="135.000003" preserveAspectRatio="xMidYMid meet" version="1.0"><defs><clipPath id="clip-0"><path d="M 0.496094 0 L 134.503906 0 L 134.503906 134.007812 L 0.496094 134.007812 Z M 0.496094 0 " clip-rule="nonzero"/></clipPath><clipPath id="clip-1"><path d="M 67 2.546875 L 68 2.546875 L 68 18 L 67 18 Z M 67 2.546875 " clip-rule="nonzero"/></clipPath><clipPath id="clip-2"><path d="M 5.136719 66 L 15 66 L 15 67 L 5.136719 67 Z M 5.136719 66 " clip-rule="nonzero"/></clipPath><clipPath id="clip-3"><path d="M 121 66 L 130.210938 66 L 130.210938 67 L 121 67 Z M 121 66 " clip-rule="nonzero"/></clipPath><clipPath id="clip-4"><path d="M 5.136719 54 L 14 54 L 14 57 L 5.136719 57 Z M 5.136719 54 " clip-rule="nonzero"/></clipPath><clipPath id="clip-5"><path d="M 124 77 L 130.210938 77 L 130.210938 80 L 124 80 Z M 124 77 " clip-rule="nonzero"/></clipPath><clipPath id="clip-6"><path d="M 78 123 L 81 123 L 81 131.339844 L 78 131.339844 Z M 78 123 " clip-rule="nonzero"/></clipPath><clipPath id="clip-7"><path d="M 66 128 L 68 128 L 68 131.339844 L 66 131.339844 Z M 66 128 " clip-rule="nonzero"/></clipPath></defs><g clip-path="url(#clip-0)"><path fill="rgb(100%, 100%, 100%)" d="M 0.496094 0 L 134.503906 0 L 134.503906 141.453125 L 0.496094 141.453125 Z M 0.496094 0 " fill-opacity="1" fill-rule="nonzero"/><path fill="rgb(100%, 100%, 100%)" d="M 0.496094 0 L 134.503906 0 L 134.503906 134.007812 L 0.496094 134.007812 Z M 0.496094 0 " fill-opacity="1" fill-rule="nonzero"/><path fill="rgb(8.628845%, 8.628845%, 8.628845%)" d="M 0.496094 0 L 134.503906 0 L 134.503906 134.007812 L 0.496094 134.007812 Z M 0.496094 0 " fill-opacity="1" fill-rule="nonzero"/></g><path fill="rgb(43.919373%, 81.17981%, 97.24884%)" d="M 66.894531 127.015625 C 66.734375 127.015625 66.605469 126.886719 66.605469 126.726562 L 66.605469 119.890625 C 66.605469 119.734375 66.734375 119.605469 66.894531 119.605469 C 67.054688 119.605469 67.179688 119.734375 67.179688 119.890625 L 67.179688 126.726562 C 67.179688 126.886719 67.054688 127.015625 66.894531 127.015625 " fill-opacity="1" fill-rule="nonzero"/><g clip-path="url(#clip-1)"><path fill="rgb(43.919373%, 81.17981%, 97.24884%)" d="M 67.464844 17.035156 C 67.292969 17.035156 67.15625 16.894531 67.15625 16.722656 C 67.167969 15.578125 67.207031 12.332031 67.25 9.226562 C 67.28125 6.519531 67.316406 3.914062 67.324219 2.914062 C 67.328125 2.746094 67.476562 2.632812 67.640625 2.609375 C 67.808594 2.613281 67.945312 2.753906 67.945312 2.921875 C 67.933594 3.921875 67.902344 6.523438 67.867188 9.234375 C 67.828125 12.339844 67.785156 15.582031 67.777344 16.730469 C 67.773438 16.898438 67.636719 17.035156 67.464844 17.035156 " fill-opacity="1" fill-rule="nonzero"/></g><path fill="rgb(43.919373%, 81.17981%, 97.24884%)" d="M 53.386719 129.855469 C 53.367188 129.855469 53.34375 129.851562 53.324219 129.847656 C 53.167969 129.8125 53.070312 129.65625 53.105469 129.503906 C 53.394531 128.210938 53.667969 127.179688 53.929688 126.179688 C 54.191406 125.183594 54.460938 124.15625 54.753906 122.871094 C 54.789062 122.714844 54.945312 122.617188 55.101562 122.652344 C 55.253906 122.691406 55.355469 122.84375 55.316406 123 C 55.027344 124.292969 54.753906 125.328125 54.492188 126.324219 C 54.230469 127.320312 53.960938 128.347656 53.671875 129.628906 C 53.640625 129.761719 53.519531 129.855469 53.386719 129.855469 " fill-opacity="1" fill-rule="nonzero"/><path fill="rgb(43.919373%, 81.17981%, 97.24884%)" d="M 76.9375 17.738281 C 76.917969 17.738281 76.898438 17.730469 76.878906 17.730469 C 76.722656 17.695312 76.621094 17.542969 76.65625 17.386719 C 77.09375 15.378906 78.035156 11.230469 78.796875 7.894531 C 79.113281 6.503906 79.394531 5.269531 79.585938 4.425781 C 79.621094 4.269531 79.773438 4.167969 79.929688 4.207031 C 80.089844 4.242188 80.183594 4.394531 80.152344 4.550781 C 79.957031 5.394531 79.679688 6.632812 79.359375 8.023438 C 78.601562 11.355469 77.65625 15.503906 77.21875 17.507812 C 77.191406 17.644531 77.070312 17.738281 76.9375 17.738281 " fill-opacity="1" fill-rule="nonzero"/><path fill="rgb(43.919373%, 81.17981%, 97.24884%)" d="M 43.726562 121.164062 C 43.6875 121.164062 43.648438 121.15625 43.609375 121.140625 C 43.464844 121.078125 43.398438 120.90625 43.460938 120.761719 C 43.898438 119.769531 44.292969 118.890625 44.6875 118.015625 C 45.089844 117.128906 45.488281 116.242188 45.929688 115.238281 C 45.996094 115.09375 46.164062 115.023438 46.308594 115.089844 C 46.457031 115.152344 46.523438 115.324219 46.457031 115.46875 C 46.019531 116.472656 45.617188 117.363281 45.214844 118.25 C 44.820312 119.128906 44.425781 120.003906 43.992188 120.992188 C 43.945312 121.097656 43.839844 121.164062 43.726562 121.164062 " fill-opacity="1" fill-rule="nonzero"/><path fill="rgb(43.919373%, 81.17981%, 97.24884%)" d="M 87.847656 20.230469 C 87.804688 20.230469 87.765625 20.21875 87.726562 20.203125 C 87.582031 20.136719 87.515625 19.964844 87.582031 19.820312 C 88.300781 18.246094 89.027344 16.671875 89.765625 15.109375 C 89.832031 14.964844 90.007812 14.902344 90.152344 14.96875 C 90.296875 15.039062 90.359375 15.207031 90.289062 15.351562 C 89.554688 16.917969 88.828125 18.488281 88.109375 20.058594 C 88.0625 20.167969 87.957031 20.230469 87.847656 20.230469 " fill-opacity="1" fill-rule="nonzero"/><path fill="rgb(43.919373%, 81.17981%, 97.24884%)" d="M 90.980469 13.507812 C 90.9375 13.507812 90.894531 13.5 90.855469 13.480469 C 90.710938 13.410156 90.648438 13.242188 90.714844 13.097656 C 91.25 11.980469 91.785156 10.867188 92.328125 9.753906 C 92.398438 9.609375 92.570312 9.550781 92.710938 9.621094 C 92.855469 9.691406 92.917969 9.863281 92.847656 10.003906 C 92.304688 11.113281 91.769531 12.226562 91.238281 13.34375 C 91.191406 13.445312 91.085938 13.507812 90.980469 13.507812 " fill-opacity="1" fill-rule="nonzero"/><path fill="rgb(43.919373%, 81.17981%, 97.24884%)" d="M 32.152344 117.785156 C 32.085938 117.785156 32.023438 117.761719 31.96875 117.71875 C 31.84375 117.621094 31.824219 117.4375 31.925781 117.3125 C 32.289062 116.867188 32.617188 116.472656 32.925781 116.105469 C 33.753906 115.105469 34.472656 114.242188 35.390625 112.921875 C 35.484375 112.792969 35.667969 112.757812 35.792969 112.847656 C 35.925781 112.941406 35.960938 113.121094 35.867188 113.25 C 34.933594 114.59375 34.207031 115.464844 33.371094 116.472656 C 33.0625 116.839844 32.734375 117.230469 32.375 117.675781 C 32.316406 117.746094 32.234375 117.785156 32.152344 117.785156 " fill-opacity="1" fill-rule="nonzero"/><path fill="rgb(43.919373%, 81.17981%, 97.24884%)" d="M 96.753906 25.027344 C 96.699219 25.027344 96.640625 25.011719 96.589844 24.972656 C 96.460938 24.882812 96.429688 24.707031 96.519531 24.574219 C 98.207031 22.164062 99.894531 19.75 101.585938 17.339844 C 101.675781 17.207031 101.859375 17.175781 101.988281 17.269531 C 102.117188 17.359375 102.152344 17.539062 102.058594 17.667969 C 100.371094 20.082031 98.683594 22.492188 96.992188 24.90625 C 96.9375 24.984375 96.847656 25.027344 96.753906 25.027344 " fill-opacity="1" fill-rule="nonzero"/><path fill="rgb(43.919373%, 81.17981%, 97.24884%)" d="M 22.371094 112.195312 C 22.296875 112.195312 22.222656 112.167969 22.164062 112.109375 C 22.050781 111.996094 22.050781 111.816406 22.164062 111.703125 L 26.449219 107.433594 C 26.5625 107.320312 26.746094 107.320312 26.859375 107.433594 C 26.972656 107.546875 26.972656 107.730469 26.859375 107.84375 L 22.574219 112.109375 C 22.519531 112.167969 22.445312 112.195312 22.371094 112.195312 " fill-opacity="1" fill-rule="nonzero"/><path fill="rgb(43.919373%, 81.17981%, 97.24884%)" d="M 28.164062 106.421875 C 28.089844 106.421875 28.011719 106.394531 27.957031 106.332031 C 27.84375 106.21875 27.847656 106.035156 27.964844 105.925781 C 28.878906 105.042969 29.792969 104.160156 30.703125 103.273438 C 30.816406 103.160156 31 103.164062 31.109375 103.277344 C 31.222656 103.390625 31.222656 103.574219 31.105469 103.6875 C 30.195312 104.570312 29.28125 105.457031 28.367188 106.339844 C 28.308594 106.394531 28.234375 106.421875 28.164062 106.421875 " fill-opacity="1" fill-rule="nonzero"/><path fill="rgb(43.919373%, 81.17981%, 97.24884%)" d="M 103.089844 31.230469 C 103.015625 31.230469 102.9375 31.203125 102.882812 31.144531 C 102.769531 31.03125 102.773438 30.847656 102.886719 30.738281 C 103.320312 30.316406 103.617188 30.019531 103.902344 29.730469 C 104.226562 29.402344 104.539062 29.082031 105.035156 28.605469 C 105.148438 28.5 105.335938 28.5 105.445312 28.617188 C 105.554688 28.730469 105.550781 28.914062 105.4375 29.023438 C 104.941406 29.492188 104.632812 29.808594 104.3125 30.132812 C 104.023438 30.425781 103.730469 30.726562 103.289062 31.148438 C 103.234375 31.203125 103.160156 31.230469 103.089844 31.230469 " fill-opacity="1" fill-rule="nonzero"/><path fill="rgb(43.919373%, 81.17981%, 97.24884%)" d="M 107.691406 26.863281 C 107.613281 26.863281 107.539062 26.835938 107.480469 26.777344 C 107.371094 26.660156 107.375 26.480469 107.488281 26.367188 C 108.191406 25.703125 108.800781 25.113281 109.410156 24.527344 C 110.027344 23.929688 110.648438 23.332031 111.359375 22.652344 C 111.476562 22.542969 111.660156 22.546875 111.769531 22.660156 C 111.878906 22.777344 111.875 22.960938 111.757812 23.070312 C 111.046875 23.746094 110.429688 24.34375 109.8125 24.9375 C 109.203125 25.527344 108.59375 26.117188 107.890625 26.785156 C 107.835938 26.839844 107.761719 26.863281 107.691406 26.863281 " fill-opacity="1" fill-rule="nonzero"/><path fill="rgb(43.919373%, 81.17981%, 97.24884%)" d="M 6.4375 77.886719 C 6.300781 77.886719 6.179688 77.785156 6.15625 77.648438 C 6.125 77.492188 6.230469 77.339844 6.386719 77.3125 L 10.886719 76.503906 C 11.042969 76.480469 11.191406 76.582031 11.222656 76.738281 C 11.25 76.894531 11.144531 77.046875 10.988281 77.074219 L 6.488281 77.878906 C 6.472656 77.882812 6.457031 77.886719 6.4375 77.886719 " fill-opacity="1" fill-rule="nonzero"/><path fill="rgb(43.919373%, 81.17981%, 97.24884%)" d="M 14.015625 76.527344 C 13.882812 76.527344 13.761719 76.429688 13.734375 76.292969 C 13.707031 76.136719 13.808594 75.984375 13.964844 75.953125 C 15.664062 75.632812 17.363281 75.316406 19.0625 75 C 19.21875 74.96875 19.371094 75.074219 19.402344 75.230469 C 19.433594 75.386719 19.328125 75.535156 19.171875 75.566406 C 17.472656 75.882812 15.773438 76.199219 14.074219 76.519531 C 14.054688 76.523438 14.035156 76.527344 14.015625 76.527344 " fill-opacity="1" fill-rule="nonzero"/><path fill="rgb(43.919373%, 81.17981%, 97.24884%)" d="M 121.710938 57.289062 C 121.570312 57.289062 121.453125 57.191406 121.425781 57.054688 C 121.394531 56.898438 121.5 56.746094 121.65625 56.71875 C 124.03125 56.269531 126.40625 55.820312 128.777344 55.367188 C 128.929688 55.339844 129.085938 55.441406 129.117188 55.597656 C 129.148438 55.75 129.042969 55.902344 128.886719 55.929688 C 126.511719 56.386719 124.136719 56.835938 121.761719 57.28125 C 121.746094 57.285156 121.726562 57.289062 121.710938 57.289062 " fill-opacity="1" fill-rule="nonzero"/><g clip-path="url(#clip-2)"><path fill="rgb(43.919373%, 81.17981%, 97.24884%)" d="M 14.613281 66.910156 L 5.457031 66.910156 C 5.296875 66.910156 5.164062 66.78125 5.164062 66.625 C 5.164062 66.464844 5.296875 66.335938 5.457031 66.335938 L 14.613281 66.335938 C 14.777344 66.335938 14.902344 66.464844 14.902344 66.625 C 14.902344 66.78125 14.777344 66.910156 14.613281 66.910156 " fill-opacity="1" fill-rule="nonzero"/></g><g clip-path="url(#clip-3)"><path fill="rgb(43.919373%, 81.17981%, 97.24884%)" d="M 121.722656 66.929688 C 121.5625 66.929688 121.433594 66.800781 121.433594 66.644531 C 121.433594 66.484375 121.5625 66.355469 121.722656 66.355469 L 129.8125 66.335938 L 129.816406 66.335938 C 129.976562 66.335938 130.105469 66.464844 130.105469 66.621094 C 130.105469 66.78125 129.976562 66.910156 129.816406 66.910156 L 121.722656 66.929688 " fill-opacity="1" fill-rule="nonzero"/></g><g clip-path="url(#clip-4)"><path fill="rgb(43.919373%, 81.17981%, 97.24884%)" d="M 13.472656 56.207031 C 13.453125 56.207031 13.433594 56.207031 13.414062 56.199219 L 5.507812 54.652344 C 5.351562 54.621094 5.253906 54.46875 5.285156 54.3125 C 5.3125 54.152344 5.464844 54.054688 5.621094 54.085938 L 13.527344 55.632812 C 13.683594 55.664062 13.785156 55.816406 13.753906 55.972656 C 13.726562 56.113281 13.609375 56.207031 13.472656 56.207031 " fill-opacity="1" fill-rule="nonzero"/></g><path fill="rgb(43.919373%, 81.17981%, 97.24884%)" d="M 20.445312 58.03125 C 20.425781 58.03125 20.410156 58.03125 20.390625 58.027344 C 19.164062 57.808594 17.933594 57.589844 16.703125 57.375 C 16.546875 57.347656 16.441406 57.199219 16.46875 57.042969 C 16.496094 56.882812 16.652344 56.785156 16.804688 56.808594 C 18.035156 57.023438 19.265625 57.242188 20.496094 57.460938 C 20.652344 57.488281 20.757812 57.640625 20.726562 57.796875 C 20.703125 57.933594 20.582031 58.03125 20.445312 58.03125 " fill-opacity="1" fill-rule="nonzero"/><path fill="rgb(43.919373%, 81.17981%, 97.24884%)" d="M 122.863281 78.066406 C 122.84375 78.066406 122.828125 78.066406 122.8125 78.0625 C 121.464844 77.8125 120.117188 77.5625 118.769531 77.3125 C 118.613281 77.28125 118.511719 77.132812 118.539062 76.976562 C 118.570312 76.816406 118.722656 76.714844 118.878906 76.746094 C 120.222656 76.996094 121.570312 77.246094 122.914062 77.496094 C 123.070312 77.527344 123.179688 77.675781 123.148438 77.832031 C 123.121094 77.96875 123 78.066406 122.863281 78.066406 " fill-opacity="1" fill-rule="nonzero"/><g clip-path="url(#clip-5)"><path fill="rgb(43.919373%, 81.17981%, 97.24884%)" d="M 129.941406 79.339844 C 129.925781 79.339844 129.90625 79.339844 129.890625 79.335938 C 128.316406 79.0625 126.742188 78.777344 125.167969 78.496094 C 125.011719 78.464844 124.910156 78.316406 124.9375 78.160156 C 124.964844 78.003906 125.121094 77.898438 125.273438 77.925781 C 126.84375 78.210938 128.417969 78.492188 129.992188 78.769531 C 130.148438 78.796875 130.253906 78.945312 130.226562 79.105469 C 130.203125 79.242188 130.078125 79.339844 129.941406 79.339844 " fill-opacity="1" fill-rule="nonzero"/></g><path fill="rgb(43.919373%, 81.17981%, 97.24884%)" d="M 126.8125 91.863281 C 126.777344 91.863281 126.742188 91.855469 126.707031 91.84375 C 125.011719 91.171875 123.316406 90.496094 121.628906 89.808594 C 121.480469 89.75 121.40625 89.582031 121.46875 89.433594 C 121.527344 89.285156 121.699219 89.214844 121.847656 89.277344 C 123.535156 89.960938 125.226562 90.636719 126.917969 91.304688 C 127.070312 91.367188 127.140625 91.535156 127.082031 91.679688 C 127.039062 91.792969 126.925781 91.863281 126.8125 91.863281 " fill-opacity="1" fill-rule="nonzero"/><path fill="rgb(43.919373%, 81.17981%, 97.24884%)" d="M 22.535156 46.984375 C 22.5 46.984375 22.464844 46.976562 22.429688 46.964844 C 20.441406 46.164062 18.449219 45.375 16.457031 44.597656 C 16.308594 44.539062 16.234375 44.371094 16.292969 44.222656 C 16.351562 44.078125 16.515625 44.003906 16.664062 44.0625 C 18.664062 44.839844 20.65625 45.628906 22.644531 46.429688 C 22.792969 46.488281 22.863281 46.65625 22.804688 46.804688 C 22.761719 46.917969 22.648438 46.984375 22.535156 46.984375 " fill-opacity="1" fill-rule="nonzero"/><path fill="rgb(43.919373%, 81.17981%, 97.24884%)" d="M 14.648438 43.78125 C 14.609375 43.78125 14.566406 43.777344 14.53125 43.757812 L 10.5625 42.027344 C 10.417969 41.964844 10.351562 41.792969 10.417969 41.648438 C 10.480469 41.5 10.652344 41.433594 10.796875 41.5 L 14.761719 43.230469 C 14.910156 43.296875 14.976562 43.464844 14.914062 43.609375 C 14.863281 43.71875 14.757812 43.78125 14.648438 43.78125 " fill-opacity="1" fill-rule="nonzero"/><path fill="rgb(43.919373%, 81.17981%, 97.24884%)" d="M 118.3125 102.074219 C 118.257812 102.074219 118.199219 102.058594 118.152344 102.023438 C 117.621094 101.679688 116.328125 100.910156 115.078125 100.167969 C 113.734375 99.367188 112.34375 98.539062 111.773438 98.160156 C 111.636719 98.074219 111.601562 97.894531 111.691406 97.765625 C 111.777344 97.628906 111.960938 97.59375 112.089844 97.679688 C 112.652344 98.050781 114.039062 98.875 115.378906 99.671875 C 116.6875 100.453125 117.929688 101.191406 118.46875 101.542969 C 118.601562 101.632812 118.640625 101.808594 118.550781 101.941406 C 118.496094 102.027344 118.40625 102.074219 118.3125 102.074219 " fill-opacity="1" fill-rule="nonzero"/><path fill="rgb(43.919373%, 81.17981%, 97.24884%)" d="M 21.664062 35.15625 C 21.605469 35.15625 21.550781 35.140625 21.5 35.105469 L 16.023438 31.316406 C 15.894531 31.222656 15.863281 31.042969 15.949219 30.914062 C 16.042969 30.78125 16.222656 30.75 16.355469 30.839844 L 21.832031 34.632812 C 21.960938 34.722656 21.996094 34.902344 21.902344 35.035156 C 21.84375 35.113281 21.757812 35.15625 21.664062 35.15625 " fill-opacity="1" fill-rule="nonzero"/><path fill="rgb(43.919373%, 81.17981%, 97.24884%)" d="M 112.902344 112.101562 C 112.820312 112.101562 112.742188 112.070312 112.683594 112.003906 C 111.480469 110.648438 111.003906 110.121094 109.78125 108.777344 C 109.675781 108.660156 109.683594 108.476562 109.800781 108.371094 C 109.917969 108.265625 110.101562 108.273438 110.210938 108.390625 C 111.433594 109.734375 111.910156 110.261719 113.117188 111.621094 C 113.222656 111.742188 113.210938 111.921875 113.09375 112.027344 C 113.039062 112.078125 112.96875 112.101562 112.902344 112.101562 " fill-opacity="1" fill-rule="nonzero"/><path fill="rgb(43.919373%, 81.17981%, 97.24884%)" d="M 108.453125 107.222656 C 108.378906 107.222656 108.304688 107.191406 108.246094 107.132812 L 106.699219 105.566406 C 106.585938 105.453125 106.585938 105.269531 106.699219 105.160156 C 106.8125 105.046875 106.996094 105.050781 107.109375 105.164062 L 108.65625 106.730469 C 108.769531 106.84375 108.769531 107.027344 108.65625 107.136719 C 108.601562 107.191406 108.527344 107.222656 108.453125 107.222656 " fill-opacity="1" fill-rule="nonzero"/><path fill="rgb(43.919373%, 81.17981%, 97.24884%)" d="M 119.699219 89.121094 C 119.667969 89.121094 119.632812 89.117188 119.597656 89.101562 L 117.535156 88.3125 C 117.386719 88.257812 117.3125 88.089844 117.371094 87.941406 C 117.429688 87.792969 117.59375 87.714844 117.746094 87.777344 L 119.804688 88.566406 C 119.953125 88.625 120.027344 88.789062 119.96875 88.9375 C 119.925781 89.054688 119.816406 89.121094 119.699219 89.121094 " fill-opacity="1" fill-rule="nonzero"/><path fill="rgb(43.919373%, 81.17981%, 97.24884%)" d="M 27.496094 26.3125 C 27.421875 26.3125 27.347656 26.285156 27.292969 26.230469 L 22.273438 21.195312 C 22.160156 21.082031 22.164062 20.902344 22.277344 20.789062 C 22.390625 20.675781 22.574219 20.675781 22.683594 20.789062 L 27.699219 25.820312 C 27.8125 25.933594 27.8125 26.117188 27.699219 26.230469 C 27.644531 26.285156 27.570312 26.3125 27.496094 26.3125 " fill-opacity="1" fill-rule="nonzero"/><path fill="rgb(43.919373%, 81.17981%, 97.24884%)" d="M 104.546875 121.0625 C 104.457031 121.0625 104.371094 121.019531 104.3125 120.9375 C 103.277344 119.464844 102.25 117.988281 101.226562 116.503906 C 101.136719 116.375 101.167969 116.195312 101.300781 116.105469 C 101.433594 116.015625 101.613281 116.046875 101.703125 116.179688 C 102.726562 117.660156 103.753906 119.136719 104.785156 120.609375 C 104.878906 120.738281 104.847656 120.917969 104.714844 121.011719 C 104.664062 121.042969 104.605469 121.0625 104.546875 121.0625 " fill-opacity="1" fill-rule="nonzero"/><path fill="rgb(43.919373%, 81.17981%, 97.24884%)" d="M 40.382812 26.347656 C 40.289062 26.347656 40.195312 26.304688 40.140625 26.21875 C 39.121094 24.691406 38.105469 23.160156 37.09375 21.628906 C 37.003906 21.496094 37.042969 21.316406 37.175781 21.230469 C 37.304688 21.140625 37.488281 21.179688 37.574219 21.3125 C 38.585938 22.84375 39.605469 24.371094 40.621094 25.902344 C 40.710938 26.03125 40.675781 26.210938 40.542969 26.296875 C 40.492188 26.332031 40.4375 26.347656 40.382812 26.347656 " fill-opacity="1" fill-rule="nonzero"/><path fill="rgb(43.919373%, 81.17981%, 97.24884%)" d="M 36.03125 19.789062 C 35.9375 19.789062 35.84375 19.738281 35.789062 19.65625 C 32.894531 15.117188 32.742188 14.945312 32.628906 14.820312 C 32.546875 14.726562 32.480469 14.652344 31.964844 13.855469 C 31.878906 13.722656 31.917969 13.546875 32.050781 13.457031 C 32.183594 13.371094 32.363281 13.410156 32.449219 13.546875 C 32.941406 14.304688 33.003906 14.371094 33.0625 14.441406 C 33.207031 14.601562 33.355469 14.769531 36.277344 19.34375 C 36.363281 19.476562 36.324219 19.65625 36.1875 19.742188 C 36.136719 19.773438 36.085938 19.789062 36.03125 19.789062 " fill-opacity="1" fill-rule="nonzero"/><path fill="rgb(43.919373%, 81.17981%, 97.24884%)" d="M 89.707031 122.953125 C 89.59375 122.953125 89.484375 122.882812 89.4375 122.769531 L 87.234375 117.144531 C 87.175781 117 87.25 116.832031 87.398438 116.773438 C 87.546875 116.714844 87.714844 116.789062 87.773438 116.9375 L 89.976562 122.558594 C 90.035156 122.707031 89.964844 122.875 89.8125 122.933594 C 89.78125 122.945312 89.742188 122.953125 89.707031 122.953125 " fill-opacity="1" fill-rule="nonzero"/><path fill="rgb(43.919373%, 81.17981%, 97.24884%)" d="M 49.316406 21.109375 C 49.195312 21.109375 49.089844 21.039062 49.046875 20.921875 C 48.078125 18.34375 47.117188 15.742188 46.191406 13.1875 C 46.136719 13.035156 46.214844 12.875 46.367188 12.820312 C 46.515625 12.761719 46.683594 12.84375 46.734375 12.992188 C 47.660156 15.542969 48.617188 18.144531 49.585938 20.722656 C 49.640625 20.871094 49.566406 21.039062 49.414062 21.09375 C 49.382812 21.105469 49.347656 21.109375 49.316406 21.109375 " fill-opacity="1" fill-rule="nonzero"/><path fill="rgb(43.919373%, 81.17981%, 97.24884%)" d="M 45.703125 11.261719 C 45.585938 11.261719 45.472656 11.191406 45.429688 11.070312 C 45.007812 9.894531 44.59375 8.714844 44.179688 7.539062 C 44.125 7.390625 44.207031 7.222656 44.355469 7.171875 C 44.503906 7.117188 44.667969 7.199219 44.722656 7.347656 C 45.136719 8.527344 45.554688 9.703125 45.976562 10.878906 C 46.03125 11.027344 45.949219 11.191406 45.800781 11.246094 C 45.769531 11.257812 45.734375 11.261719 45.703125 11.261719 " fill-opacity="1" fill-rule="nonzero"/><g clip-path="url(#clip-6)"><path fill="rgb(43.919373%, 81.17981%, 97.24884%)" d="M 79.996094 131.128906 C 79.859375 131.128906 79.738281 131.027344 79.710938 130.886719 L 78.414062 123.640625 C 78.386719 123.484375 78.492188 123.332031 78.652344 123.304688 C 78.800781 123.277344 78.957031 123.378906 78.984375 123.539062 L 80.28125 130.785156 C 80.308594 130.945312 80.203125 131.09375 80.046875 131.121094 C 80.03125 131.125 80.011719 131.128906 79.996094 131.128906 " fill-opacity="1" fill-rule="nonzero"/></g><path fill="rgb(43.919373%, 81.17981%, 97.24884%)" d="M 58.601562 18.546875 C 58.460938 18.546875 58.339844 18.445312 58.316406 18.308594 L 57.503906 13.582031 C 57.476562 13.425781 57.582031 13.273438 57.742188 13.246094 C 57.898438 13.222656 58.046875 13.328125 58.074219 13.484375 L 58.886719 18.210938 C 58.914062 18.367188 58.808594 18.515625 58.648438 18.542969 C 58.632812 18.546875 58.617188 18.546875 58.601562 18.546875 " fill-opacity="1" fill-rule="nonzero"/><path fill="rgb(43.919373%, 81.17981%, 97.24884%)" d="M 57.382812 11.457031 C 57.242188 11.457031 57.125 11.359375 57.097656 11.21875 C 56.691406 8.859375 56.285156 6.496094 55.875 4.132812 C 55.84375 3.976562 55.949219 3.828125 56.109375 3.796875 C 56.265625 3.777344 56.414062 3.878906 56.441406 4.03125 C 56.851562 6.394531 57.261719 8.757812 57.667969 11.121094 C 57.695312 11.277344 57.589844 11.425781 57.433594 11.453125 C 57.414062 11.457031 57.398438 11.457031 57.382812 11.457031 " fill-opacity="1" fill-rule="nonzero"/><path fill="rgb(43.919373%, 81.17981%, 97.24884%)" d="M 26.898438 39.433594 C 26.835938 39.433594 26.773438 39.414062 26.722656 39.375 L 24.011719 37.367188 C 23.882812 37.273438 23.859375 37.09375 23.953125 36.964844 C 24.046875 36.835938 24.230469 36.8125 24.359375 36.90625 L 27.070312 38.914062 C 27.199219 39.007812 27.222656 39.1875 27.128906 39.316406 C 27.074219 39.394531 26.984375 39.433594 26.898438 39.433594 " fill-opacity="1" fill-rule="nonzero"/><path fill="rgb(43.919373%, 81.17981%, 97.24884%)" d="M 32.875 31.957031 C 32.800781 31.957031 32.726562 31.925781 32.667969 31.871094 L 29.648438 28.894531 C 29.535156 28.78125 29.53125 28.597656 29.644531 28.488281 C 29.757812 28.371094 29.941406 28.371094 30.054688 28.484375 L 33.078125 31.460938 C 33.191406 31.570312 33.195312 31.757812 33.082031 31.871094 C 33.023438 31.925781 32.949219 31.957031 32.875 31.957031 " fill-opacity="1" fill-rule="nonzero"/><g clip-path="url(#clip-7)"><path fill="rgb(43.919373%, 81.17981%, 97.24884%)" d="M 66.800781 131.261719 C 66.640625 131.261719 66.511719 131.132812 66.511719 130.972656 L 66.511719 128.945312 C 66.511719 128.785156 66.640625 128.652344 66.800781 128.652344 C 66.960938 128.652344 67.089844 128.785156 67.089844 128.945312 L 67.089844 130.972656 C 67.089844 131.132812 66.960938 131.261719 66.800781 131.261719 " fill-opacity="1" fill-rule="nonzero"/></g><path fill="rgb(43.919373%, 81.17981%, 97.24884%)" d="M 55.460938 121.726562 C 55.4375 121.726562 55.414062 121.71875 55.390625 121.714844 C 55.234375 121.679688 55.140625 121.523438 55.179688 121.367188 L 55.910156 118.339844 C 55.945312 118.1875 56.105469 118.089844 56.257812 118.128906 C 56.414062 118.164062 56.507812 118.320312 56.472656 118.476562 L 55.738281 121.503906 C 55.707031 121.636719 55.589844 121.726562 55.460938 121.726562 " fill-opacity="1" fill-rule="nonzero"/><path fill="rgb(43.919373%, 81.17981%, 97.24884%)" d="M 41.851562 125.421875 C 41.808594 125.421875 41.769531 125.414062 41.726562 125.394531 C 41.582031 125.328125 41.519531 125.15625 41.589844 125.011719 L 42.5625 122.953125 C 42.628906 122.808594 42.800781 122.746094 42.949219 122.816406 C 43.09375 122.882812 43.152344 123.050781 43.085938 123.199219 L 42.113281 125.257812 C 42.0625 125.363281 41.957031 125.421875 41.851562 125.421875 " fill-opacity="1" fill-rule="nonzero"/><path fill="rgb(43.919373%, 81.17981%, 97.24884%)" d="M 36.949219 111.746094 C 36.890625 111.746094 36.828125 111.730469 36.777344 111.691406 C 36.648438 111.597656 36.621094 111.414062 36.71875 111.289062 L 38.386719 109.035156 C 38.480469 108.910156 38.664062 108.882812 38.789062 108.976562 C 38.917969 109.070312 38.945312 109.253906 38.851562 109.378906 L 37.183594 111.628906 C 37.125 111.707031 37.039062 111.746094 36.949219 111.746094 " fill-opacity="1" fill-rule="nonzero"/><path fill="rgb(43.919373%, 81.17981%, 97.24884%)" d="M 90.984375 126.667969 C 90.863281 126.667969 90.75 126.589844 90.710938 126.464844 L 90.15625 124.664062 C 90.109375 124.511719 90.195312 124.351562 90.347656 124.304688 C 90.5 124.257812 90.660156 124.34375 90.707031 124.496094 L 91.261719 126.296875 C 91.3125 126.449219 91.226562 126.609375 91.074219 126.65625 C 91.042969 126.664062 91.015625 126.667969 90.984375 126.667969 " fill-opacity="1" fill-rule="nonzero"/><path fill="rgb(43.919373%, 81.17981%, 97.24884%)" d="M 78.316406 121.976562 C 78.179688 121.976562 78.058594 121.875 78.035156 121.734375 L 77.621094 119.382812 C 77.59375 119.222656 77.699219 119.074219 77.855469 119.046875 C 78.011719 119.019531 78.164062 119.125 78.191406 119.28125 L 78.605469 121.636719 C 78.632812 121.792969 78.527344 121.945312 78.367188 121.96875 C 78.351562 121.972656 78.335938 121.976562 78.316406 121.976562 " fill-opacity="1" fill-rule="nonzero"/><path fill="rgb(43.919373%, 81.17981%, 97.24884%)" d="M 100.308594 115.019531 C 100.214844 115.019531 100.125 114.972656 100.070312 114.894531 L 98.230469 112.230469 C 98.144531 112.101562 98.175781 111.921875 98.304688 111.835938 C 98.4375 111.742188 98.621094 111.773438 98.707031 111.910156 L 100.546875 114.566406 C 100.636719 114.695312 100.605469 114.875 100.472656 114.96875 C 100.421875 115 100.363281 115.019531 100.308594 115.019531 " fill-opacity="1" fill-rule="nonzero"/><path fill="rgb(43.919373%, 81.17981%, 97.24884%)" d="M 102.3125 102.867188 C 102.839844 101.46875 103.527344 99.160156 103.878906 95.996094 C 108.539062 92.054688 112.375 87.285156 115.097656 81.871094 L 115.109375 81.871094 C 112.730469 89.964844 108.257812 97.167969 102.3125 102.867188 Z M 78.542969 115.28125 C 79.226562 112.648438 79.757812 109.933594 80.152344 107.15625 C 83.679688 106.480469 87.074219 105.472656 90.300781 104.160156 C 90.304688 104.257812 90.3125 104.351562 90.304688 104.453125 C 90.171875 106.78125 92.640625 105.410156 95.042969 103.425781 C 96.6875 102.0625 97.019531 101.40625 97.554688 100.535156 C 99.410156 99.417969 101.167969 98.183594 102.839844 96.851562 C 102.21875 101.445312 100.910156 103.9375 100.867188 104.019531 L 100.988281 104.089844 C 94.75 109.636719 87.050781 113.585938 78.542969 115.28125 Z M 69.132812 116.210938 C 66.082031 116.210938 63.097656 115.914062 60.199219 115.367188 C 59.492188 112.691406 58.953125 109.925781 58.550781 107.097656 C 62.109375 107.792969 65.789062 108.164062 69.542969 108.164062 C 72.855469 108.164062 76.101562 107.875 79.253906 107.320312 C 78.839844 110.175781 78.296875 112.886719 77.613281 115.445312 C 74.859375 115.9375 72.027344 116.210938 69.132812 116.210938 Z M 44.675781 109.5 C 44.613281 109.304688 44.550781 109.113281 44.472656 108.90625 C 43.671875 106.78125 45.203125 107.878906 45.9375 105.546875 C 46.640625 103.324219 43.460938 105.027344 46.195312 103.15625 C 49.800781 104.796875 53.648438 106.070312 57.664062 106.917969 C 58.050781 109.746094 58.582031 112.511719 59.273438 115.1875 C 54.046875 114.09375 49.128906 112.144531 44.675781 109.5 Z M 81.066406 92.230469 C 82.5 91.886719 83.902344 91.484375 85.265625 91.019531 C 85.289062 91.132812 85.316406 91.246094 85.367188 91.359375 C 86.101562 93.074219 87.835938 94.308594 87.769531 97.734375 C 87.714844 100.550781 89.546875 101.699219 90.132812 103.308594 C 87 104.59375 83.699219 105.585938 80.277344 106.261719 C 80.871094 101.703125 81.113281 96.992188 81.066406 92.230469 Z M 79.941406 75.9375 C 83.613281 75.714844 84.714844 75.535156 84.835938 79.296875 C 84.96875 83.480469 86.636719 82.109375 87.039062 85.125 C 87.335938 87.386719 85.835938 88.796875 85.375 90.085938 C 83.972656 90.574219 82.53125 90.992188 81.0625 91.355469 C 80.976562 86.222656 80.566406 81.042969 79.941406 75.9375 Z M 103.15625 92.023438 C 103.15625 93.332031 103.089844 94.535156 102.976562 95.640625 C 102.160156 96.320312 101.316406 96.96875 100.449219 97.597656 C 100.453125 97.359375 100.453125 97.078125 100.445312 96.707031 C 100.382812 93.546875 102.195312 94.632812 103.15625 92.023438 Z M 102.265625 83.257812 C 102.546875 84.667969 102.75 86.011719 102.890625 87.285156 C 102.429688 85.84375 101.941406 84.457031 102.265625 83.257812 Z M 115.902344 54.757812 L 113.613281 56.230469 L 113.464844 56.445312 L 113.078125 56.539062 C 113.015625 56.601562 112.933594 56.710938 112.847656 56.871094 C 112.570312 57.398438 112.277344 58.511719 112.601562 60.519531 L 112.621094 60.625 C 112.621094 60.613281 112.625 60.601562 112.625 60.589844 C 113.1875 59.9375 113.277344 59.585938 114.058594 60.863281 C 114.796875 62.074219 115.972656 62.578125 116.691406 62.785156 C 116.914062 64.652344 117.042969 66.550781 117.042969 68.476562 C 117.042969 71.375 116.769531 74.210938 116.269531 76.96875 C 115.996094 77.730469 115.695312 78.476562 115.378906 79.214844 C 115.292969 76.757812 114.886719 72.792969 113.4375 68.105469 C 113.644531 67.863281 113.863281 67.546875 114.125 67.097656 C 115.589844 64.5625 117.527344 63.742188 114.589844 63.328125 C 114.023438 63.25 113.539062 63.242188 113.109375 63.273438 C 113.515625 65.761719 113.34375 66.726562 111.953125 68.96875 C 112.25 68.894531 112.492188 68.820312 112.726562 68.703125 C 114.507812 74.628906 114.585938 79.308594 114.535156 81.0625 C 111.984375 86.28125 108.386719 90.90625 104 94.761719 C 104.210938 91.972656 104.140625 88.613281 103.503906 84.707031 C 103.363281 83.859375 103.191406 82.972656 102.988281 82.050781 C 103.207031 81.832031 103.453125 81.621094 103.78125 81.425781 C 107.652344 79.09375 110.519531 73.539062 110.320312 72.101562 C 110.273438 71.769531 110.136719 71.6875 109.933594 71.738281 C 106.957031 75.457031 102.554688 80.441406 102.503906 80.496094 L 102.117188 80.933594 L 101.578125 81.152344 C 101.417969 81.21875 100.933594 81.386719 100.300781 81.460938 C 100.125 81.480469 99.945312 81.5 99.75 81.5 C 98.535156 81.5 97.453125 81.019531 96.699219 80.148438 C 95.71875 79.015625 95.40625 77.386719 95.738281 75.171875 C 95.828125 74.660156 95.949219 74.167969 96.085938 73.683594 C 96.121094 73.558594 96.164062 73.445312 96.203125 73.324219 C 96.3125 72.960938 96.429688 72.605469 96.5625 72.261719 C 96.597656 72.167969 96.636719 72.078125 96.671875 71.984375 C 96.820312 71.617188 96.972656 71.261719 97.132812 70.921875 C 97.15625 70.875 97.175781 70.835938 97.199219 70.789062 C 97.789062 69.566406 98.441406 68.523438 99.027344 67.703125 C 99.070312 67.644531 99.113281 67.582031 99.15625 67.519531 C 99.242188 67.410156 99.320312 67.296875 99.398438 67.191406 C 99.535156 67.011719 99.667969 66.839844 99.789062 66.691406 C 97.707031 65.851562 96.691406 64.34375 96.089844 63.441406 C 96.058594 63.398438 96.027344 63.351562 95.996094 63.304688 C 95.851562 63.320312 95.699219 63.34375 95.539062 63.367188 C 95.257812 63.410156 94.949219 63.46875 94.621094 63.53125 C 94.339844 63.585938 94.042969 63.648438 93.738281 63.714844 C 93.726562 63.714844 93.714844 63.71875 93.703125 63.722656 C 93.40625 63.785156 93.097656 63.859375 92.789062 63.933594 C 92.785156 63.933594 92.78125 63.933594 92.777344 63.933594 C 92.46875 64.007812 92.160156 64.085938 91.855469 64.164062 C 91.824219 64.171875 91.796875 64.179688 91.765625 64.1875 C 91.464844 64.261719 91.167969 64.34375 90.878906 64.421875 C 90.074219 64.640625 89.347656 64.859375 88.808594 65.046875 C 88.746094 65.070312 88.6875 65.09375 88.625 65.113281 C 88.574219 65.132812 88.523438 65.152344 88.476562 65.171875 C 88.425781 65.191406 88.382812 65.207031 88.339844 65.222656 C 88.285156 65.246094 88.238281 65.265625 88.191406 65.289062 C 88.164062 65.300781 88.136719 65.3125 88.109375 65.324219 C 88.046875 65.355469 87.992188 65.386719 87.953125 65.414062 C 87.902344 65.445312 87.835938 65.503906 87.746094 65.574219 C 87.722656 65.601562 87.679688 65.632812 87.652344 65.660156 C 87.582031 65.71875 87.519531 65.773438 87.4375 65.847656 C 87.40625 65.875 87.371094 65.90625 87.339844 65.933594 C 87.113281 66.132812 86.855469 66.367188 86.566406 66.632812 C 85.929688 67.214844 85.179688 67.914062 84.507812 68.535156 C 84.304688 68.726562 84.113281 68.902344 83.917969 69.082031 C 83.917969 69.085938 83.914062 69.089844 83.910156 69.089844 C 83.453125 69.515625 83.019531 69.914062 82.613281 70.289062 C 82.609375 70.292969 82.605469 70.296875 82.597656 70.300781 C 82.199219 70.667969 81.828125 71.011719 81.476562 71.332031 C 81.464844 71.339844 81.453125 71.351562 81.445312 71.359375 C 81.105469 71.667969 80.785156 71.957031 80.484375 72.226562 C 80.453125 72.253906 80.417969 72.285156 80.386719 72.3125 C 79.402344 73.191406 78.636719 73.84375 78.023438 74.324219 C 78.019531 74.324219 78.015625 74.328125 78.015625 74.328125 C 77.785156 74.511719 77.574219 74.664062 77.382812 74.796875 C 77.378906 74.800781 77.371094 74.808594 77.367188 74.808594 C 77.179688 74.9375 77.007812 75.050781 76.855469 75.140625 C 76.847656 75.144531 76.839844 75.144531 76.835938 75.148438 C 76.679688 75.238281 76.535156 75.308594 76.40625 75.363281 C 75.410156 75.765625 74.488281 76.089844 73.496094 76.15625 C 73.722656 76.300781 73.933594 76.46875 74.128906 76.660156 C 75.203125 76.457031 76.605469 76.09375 78.632812 76.007812 C 78.789062 76.003906 78.929688 75.992188 79.078125 75.984375 C 79.28125 77.644531 79.445312 79.273438 79.59375 80.886719 C 80.058594 81.484375 80.371094 82.171875 80.488281 82.957031 L 80.507812 83.125 C 80.601562 84.226562 80.410156 85.148438 79.960938 85.894531 C 80.070312 87.816406 80.152344 89.71875 80.175781 91.566406 C 77.960938 92.066406 75.667969 92.40625 73.328125 92.609375 C 72.945312 92.988281 72.492188 93.304688 72.007812 93.574219 C 74.8125 93.410156 77.546875 93.027344 80.183594 92.441406 C 80.214844 97.398438 79.945312 102.078125 79.363281 106.441406 C 76.179688 107.011719 72.894531 107.3125 69.542969 107.3125 C 65.742188 107.3125 62.019531 106.921875 58.429688 106.203125 C 58.027344 103.105469 57.800781 99.933594 57.714844 96.722656 C 57.425781 96.761719 57.15625 96.796875 56.859375 96.835938 C 56.949219 99.945312 57.164062 103.019531 57.539062 106.027344 C 53.871094 105.226562 50.34375 104.0625 47.023438 102.589844 C 50.078125 100.460938 50.203125 99.449219 50.074219 97.941406 C 50.066406 97.820312 50.054688 97.726562 50.046875 97.640625 C 48.5625 97.726562 46.921875 97.765625 45.308594 97.777344 C 45.226562 97.777344 45.144531 97.777344 45.058594 97.777344 C 44.550781 97.78125 44.042969 97.785156 43.546875 97.785156 C 42.585938 97.785156 41.609375 97.777344 40.644531 97.777344 L 40.210938 97.769531 C 39.609375 97.769531 39.019531 97.765625 38.4375 97.765625 C 38 97.761719 37.566406 97.761719 37.144531 97.761719 C 37.085938 97.761719 37.035156 97.761719 36.976562 97.761719 C 36.847656 97.761719 36.722656 97.761719 36.597656 97.761719 C 36.507812 97.765625 36.414062 97.765625 36.328125 97.765625 C 36.570312 99.808594 36.566406 101.121094 37.601562 102.667969 C 38.304688 103.726562 38.8125 104.746094 39.1875 105.695312 C 38.375 105.046875 37.582031 104.378906 36.816406 103.675781 C 36.476562 102.910156 35.707031 100.898438 35.222656 97.773438 C 34.898438 97.777344 34.589844 97.78125 34.296875 97.789062 C 34.59375 99.683594 34.992188 101.199219 35.355469 102.292969 C 33.972656 100.921875 32.679688 99.46875 31.472656 97.9375 C 31.21875 97.96875 31.007812 98 30.863281 98.039062 C 30.789062 98.058594 30.679688 98.09375 30.550781 98.128906 C 32.234375 100.292969 34.078125 102.320312 36.09375 104.175781 C 36.15625 104.304688 36.207031 104.402344 36.21875 104.429688 L 36.3125 104.382812 C 44.984375 112.257812 56.503906 117.0625 69.132812 117.0625 C 93.035156 117.0625 112.960938 99.839844 117.101562 77.203125 C 117.152344 77.054688 117.214844 76.90625 117.265625 76.753906 L 117.183594 76.726562 C 117.648438 74.042969 117.902344 71.289062 117.902344 68.476562 C 117.902344 63.710938 117.191406 59.109375 115.902344 54.757812 " fill-opacity="1" fill-rule="nonzero"/><path fill="rgb(43.919373%, 81.17981%, 97.24884%)" d="M 21.8125 61.023438 C 22.09375 60.832031 22.578125 60.742188 23.65625 60.863281 C 24.390625 60.941406 24.914062 61.101562 25.332031 61.273438 C 25.460938 62.167969 25.625 63.058594 25.828125 63.933594 C 25.214844 65.410156 24.707031 66.84375 24.292969 68.210938 C 24.136719 68.09375 24.121094 67.804688 24.121094 66.960938 C 24.121094 64.835938 24.65625 65.453125 22.722656 65.660156 C 22.207031 65.710938 21.742188 65.671875 21.320312 65.589844 C 21.414062 64.046875 21.574219 62.523438 21.8125 61.023438 Z M 22.503906 77.871094 C 22.261719 77.230469 22.03125 76.585938 21.820312 75.933594 L 21.8125 75.933594 C 21.605469 74.609375 21.460938 73.265625 21.359375 71.90625 C 22.078125 72.488281 22.59375 72.933594 23.074219 73.273438 C 22.761719 75.027344 22.589844 76.582031 22.503906 77.871094 Z M 26.742188 61.886719 C 26.628906 62.117188 26.519531 62.351562 26.414062 62.582031 C 26.359375 62.296875 26.3125 62.007812 26.269531 61.71875 C 26.425781 61.792969 26.582031 61.851562 26.742188 61.886719 Z M 33.464844 41.738281 C 35.464844 39.679688 36.796875 40.777344 38.597656 39.0625 C 40.402344 37.351562 42.671875 33.71875 40.734375 34.40625 C 38.800781 35.089844 40.46875 35.296875 37.800781 35.773438 C 36.957031 35.925781 36.269531 35.988281 35.671875 35.996094 C 37.324219 35.082031 39.523438 34.078125 42.324219 33.210938 C 41.523438 33.671875 41.046875 34.25 42.71875 34.519531 C 40.683594 37.578125 39.378906 41.027344 38.992188 44.699219 C 38.324219 45.410156 37.820312 45.714844 37.464844 45.300781 C 36.464844 44.136719 31.460938 43.792969 33.464844 41.738281 Z M 52.5 23.714844 C 52.785156 23.824219 53.554688 24.128906 54.617188 24.570312 C 50.871094 26.300781 47.605469 28.6875 45.03125 31.539062 C 40.035156 32.707031 36.535156 34.386719 34.289062 35.769531 C 39.308594 30.464844 45.519531 26.296875 52.5 23.714844 Z M 54.195312 23.132812 C 56.691406 22.371094 59.296875 21.804688 61.984375 21.4375 C 62.136719 21.621094 62.316406 21.835938 62.515625 22.078125 C 60.125 22.523438 57.839844 23.207031 55.699219 24.101562 C 54.921875 23.769531 54.242188 23.488281 53.742188 23.285156 C 53.890625 23.234375 54.042969 23.183594 54.195312 23.132812 Z M 68.929688 20.964844 C 70.933594 20.964844 72.90625 21.089844 74.839844 21.3125 C 74.691406 21.492188 74.53125 21.6875 74.359375 21.902344 C 72.605469 21.632812 70.808594 21.484375 68.964844 21.484375 C 67.097656 21.484375 65.265625 21.636719 63.488281 21.914062 C 63.3125 21.695312 63.152344 21.496094 63 21.3125 C 64.941406 21.089844 66.917969 20.964844 68.929688 20.964844 Z M 75.855469 21.4375 C 78.714844 21.824219 81.476562 22.445312 84.117188 23.28125 C 83.621094 23.480469 82.957031 23.753906 82.191406 24.082031 C 80.039062 23.1875 77.738281 22.503906 75.335938 22.0625 C 75.53125 21.828125 75.707031 21.617188 75.855469 21.4375 Z M 94.417969 27.957031 C 94.742188 28.160156 95.066406 28.367188 95.386719 28.574219 C 95.613281 28.722656 95.84375 28.871094 96.066406 29.023438 C 96.453125 29.289062 96.835938 29.5625 97.214844 29.835938 C 98.921875 31.078125 100.507812 32.429688 101.960938 33.878906 C 101.648438 34.039062 101.195312 34.265625 100.703125 34.511719 C 98.925781 33.695312 96.808594 32.886719 94.339844 32.191406 C 94.011719 31.953125 93.566406 31.757812 93.015625 31.664062 C 90.414062 28.742188 87.089844 26.304688 83.269531 24.550781 C 84.40625 24.078125 85.171875 23.777344 85.386719 23.699219 C 88.613281 24.816406 91.640625 26.25 94.417969 27.957031 Z M 97.976562 35.707031 C 97.273438 35.835938 95.363281 34.273438 95.085938 33.300781 C 96.816406 33.828125 98.351562 34.40625 99.699219 34.996094 C 98.945312 35.351562 98.253906 35.65625 97.976562 35.707031 Z M 90.863281 40.1875 C 90.109375 39.726562 89.339844 39.269531 88.539062 38.816406 C 88.503906 37.558594 87.839844 36.550781 89.171875 37.28125 C 91.039062 38.3125 92.375 37.144531 92.503906 38.378906 C 92.636719 39.578125 92.75 38.855469 90.863281 40.1875 Z M 85.570312 42.082031 C 85.101562 40.640625 84.769531 39.199219 84.167969 40.640625 C 83.566406 42.082031 85.4375 41.601562 83.101562 42.628906 C 82.441406 42.917969 81.714844 43.179688 81.003906 43.441406 C 80.292969 42.644531 79.5625 41.84375 78.808594 41.027344 C 80.03125 39.621094 80.863281 37.949219 81.164062 36.128906 C 81.816406 36.410156 82.457031 36.695312 83.082031 36.988281 C 82 37.722656 81.652344 38.472656 82.765625 39.0625 C 84.433594 39.957031 85.234375 37.214844 85.96875 39.199219 C 86.703125 41.191406 86.835938 42.082031 88.105469 40.367188 C 88.253906 40.164062 88.351562 39.953125 88.421875 39.738281 C 88.996094 40.0625 89.554688 40.394531 90.101562 40.730469 C 88.160156 42.105469 85.988281 43.382812 85.570312 42.082031 Z M 71.9375 34.039062 C 72.078125 33.933594 72.214844 33.839844 72.355469 33.710938 C 72.613281 33.472656 72.800781 33.257812 72.945312 33.0625 C 75.578125 33.90625 78.042969 34.816406 80.355469 35.789062 C 80.117188 37.5 79.359375 39.074219 78.222656 40.398438 C 76.273438 38.324219 74.183594 36.203125 71.9375 34.039062 Z M 73.300781 43.710938 C 72.394531 40.46875 71.488281 37.472656 70.628906 34.769531 C 70.816406 34.703125 71.007812 34.621094 71.195312 34.523438 C 73.5 36.734375 75.648438 38.902344 77.640625 41.03125 C 76.46875 42.191406 74.988281 43.117188 73.300781 43.710938 Z M 68.929688 44.453125 C 67.753906 44.453125 66.617188 44.296875 65.546875 44.019531 C 66.453125 40.8125 67.359375 37.832031 68.222656 35.140625 C 68.777344 35.113281 69.289062 35.078125 69.792969 34.992188 C 70.753906 38.019531 71.648438 41.011719 72.480469 43.96875 C 71.359375 44.28125 70.167969 44.453125 68.929688 44.453125 Z M 64.726562 43.765625 C 62.964844 43.171875 61.417969 42.222656 60.203125 41.015625 C 61.894531 39.199219 63.695312 37.355469 65.609375 35.480469 C 65.800781 35.414062 66 35.355469 66.207031 35.320312 C 66.59375 35.261719 66.957031 35.226562 67.304688 35.199219 C 66.472656 37.808594 65.597656 40.683594 64.726562 43.765625 Z M 59.625 40.386719 C 58.511719 39.082031 57.765625 37.535156 57.515625 35.855469 C 59.171875 35.171875 60.902344 34.515625 62.71875 33.894531 C 62.546875 34.226562 62.214844 34.519531 61.695312 34.851562 C 60.320312 35.722656 60.125 37.742188 61.300781 38.347656 C 61.367188 38.378906 61.4375 38.398438 61.503906 38.410156 C 60.863281 39.074219 60.238281 39.734375 59.625 40.386719 Z M 44.300781 60.179688 C 42.527344 57.839844 41.214844 55.234375 40.460938 52.445312 C 42.695312 52.183594 44.769531 51.863281 44.605469 50.03125 C 44.335938 47.082031 42.070312 47.5625 45.070312 46.808594 C 48.074219 46.054688 51.277344 45.917969 50.007812 44.410156 C 48.820312 42.996094 51.332031 40.554688 49.164062 39.921875 C 51.46875 38.609375 53.980469 37.363281 56.707031 36.195312 C 57.015625 37.988281 57.839844 39.628906 59.042969 41.015625 C 52.683594 47.914062 47.890625 54.328125 44.300781 60.179688 Z M 60.160156 27.085938 C 59.144531 27.964844 58.316406 29.007812 57.703125 30.148438 C 53.394531 30.175781 49.671875 30.589844 46.503906 31.222656 C 49.027344 28.671875 52.15625 26.558594 55.699219 25.03125 C 56.976562 25.582031 58.519531 26.28125 60.160156 27.085938 Z M 64.507812 24.644531 C 63.179688 25.085938 61.960938 25.714844 60.902344 26.496094 C 59.425781 25.765625 58.023438 25.121094 56.796875 24.582031 C 58.800781 23.804688 60.914062 23.214844 63.125 22.835938 C 63.550781 23.367188 64.015625 23.980469 64.507812 24.644531 Z M 62.820312 27.480469 C 62.460938 27.292969 62.113281 27.113281 61.761719 26.933594 C 62.734375 26.265625 63.835938 25.742188 65.027344 25.371094 C 65.1875 25.597656 65.34375 25.824219 65.5 26.054688 C 64.015625 26.585938 63.675781 26.859375 62.9375 27.394531 C 62.894531 27.421875 62.859375 27.449219 62.820312 27.480469 Z M 62.207031 31.117188 C 62.28125 31.257812 62.351562 31.402344 62.414062 31.558594 C 62.640625 32.128906 62.78125 32.574219 62.832031 32.953125 C 60.949219 33.589844 59.148438 34.257812 57.4375 34.964844 C 57.433594 34.847656 57.414062 34.734375 57.414062 34.617188 C 57.414062 33.34375 57.707031 32.128906 58.226562 31.011719 C 59.5 31.011719 60.828125 31.046875 62.207031 31.117188 Z M 61.621094 30.226562 C 60.613281 30.179688 59.636719 30.152344 58.6875 30.144531 C 59.28125 29.152344 60.066406 28.261719 61 27.5 C 61.351562 27.679688 61.703125 27.859375 62.058594 28.042969 C 61.613281 28.382812 61.429688 28.535156 61.429688 28.535156 C 60.472656 29.003906 60.980469 29.410156 61.621094 30.226562 Z M 69.433594 24.800781 C 69.242188 24.851562 69.046875 24.90625 68.824219 24.972656 C 67.789062 25.292969 66.992188 25.546875 66.34375 25.761719 C 66.203125 25.550781 66.058594 25.339844 65.914062 25.132812 C 66.878906 24.910156 67.886719 24.78125 68.929688 24.78125 C 69.101562 24.78125 69.265625 24.792969 69.433594 24.800781 Z M 72.460938 24.375 C 71.339844 24.085938 70.15625 23.921875 68.929688 23.921875 C 67.695312 23.921875 66.507812 24.085938 65.378906 24.378906 C 64.941406 23.765625 64.507812 23.199219 64.105469 22.6875 C 65.6875 22.460938 67.308594 22.335938 68.964844 22.335938 C 70.59375 22.335938 72.1875 22.457031 73.742188 22.671875 C 73.339844 23.1875 72.90625 23.757812 72.460938 24.375 Z M 79.152344 25.433594 C 77.796875 24.71875 78.09375 24.609375 74.90625 25.242188 C 74.898438 25.246094 74.890625 25.246094 74.878906 25.246094 C 74.386719 25.011719 73.867188 24.8125 73.339844 24.636719 C 73.828125 23.96875 74.300781 23.359375 74.726562 22.820312 C 76.945312 23.195312 79.074219 23.785156 81.082031 24.5625 C 80.476562 24.828125 79.835938 25.117188 79.152344 25.433594 Z M 75.066406 30.308594 C 76.863281 29.507812 77.496094 29.269531 78.027344 28.613281 C 78.476562 29.105469 78.871094 29.636719 79.203125 30.199219 C 77.875 30.191406 76.492188 30.230469 75.066406 30.308594 Z M 79.65625 31.0625 C 80.15625 32.164062 80.445312 33.363281 80.445312 34.617188 C 80.445312 34.710938 80.433594 34.796875 80.429688 34.890625 C 78.207031 33.96875 75.847656 33.097656 73.335938 32.292969 C 73.449219 31.890625 73.421875 31.578125 73.640625 31.257812 C 75.75 31.101562 77.753906 31.039062 79.65625 31.0625 Z M 80.195312 30.214844 C 79.75 29.371094 79.1875 28.578125 78.515625 27.867188 C 78.554688 27.796875 78.59375 27.738281 78.636719 27.660156 C 79.464844 26.152344 82.277344 26.882812 80.15625 25.914062 C 80.886719 25.582031 81.566406 25.277344 82.1875 25.011719 C 85.890625 26.601562 89.140625 28.832031 91.730469 31.535156 C 88.429688 30.800781 84.589844 30.296875 80.195312 30.214844 Z M 80.589844 31.074219 C 84.144531 31.160156 87.320312 31.53125 90.132812 32.070312 C 89.585938 32.285156 89.003906 32.570312 88.371094 32.964844 C 86.769531 34.199219 87.636719 34.886719 85.167969 35.910156 C 84.738281 36.089844 84.339844 36.277344 83.972656 36.464844 C 83.097656 36.046875 82.195312 35.640625 81.269531 35.246094 C 81.28125 35.035156 81.304688 34.828125 81.304688 34.617188 C 81.304688 33.375 81.042969 32.183594 80.589844 31.074219 Z M 50.742188 34.472656 C 49.339844 32.691406 48.609375 32.554688 46.472656 32.554688 C 45.96875 32.554688 45.59375 32.546875 45.285156 32.546875 C 45.335938 32.492188 45.378906 32.433594 45.425781 32.378906 C 48.710938 31.621094 52.648438 31.085938 57.292969 31.015625 C 56.824219 32.144531 56.558594 33.351562 56.558594 34.617188 C 56.558594 34.851562 56.578125 35.082031 56.597656 35.3125 C 53.453125 36.644531 50.597656 38.082031 48.003906 39.601562 C 46.136719 38.621094 48.117188 35.078125 44.539062 38.378906 C 42.636719 40.132812 41.160156 42.078125 40.023438 43.488281 C 40.5625 40.296875 41.832031 37.304688 43.679688 34.625 C 47.730469 34.921875 47.742188 34.160156 47.875 35.910156 C 48.007812 37.695312 49.273438 38.105469 50.609375 37.144531 C 51.945312 36.1875 52.144531 36.253906 50.742188 34.472656 Z M 20.386719 70.386719 C 20.386719 70.640625 20.394531 70.890625 20.394531 71.140625 C 20.414062 71.15625 20.429688 71.167969 20.445312 71.179688 C 20.597656 73.925781 20.992188 76.605469 21.585938 79.214844 C 22.050781 78.9375 22.449219 78.65625 22.765625 78.382812 C 22.988281 78.078125 23.195312 77.792969 23.394531 77.519531 C 23.476562 76.417969 23.613281 75.160156 23.859375 73.738281 C 23.964844 73.789062 24.074219 73.839844 24.191406 73.882812 C 25.457031 74.363281 26.058594 72.238281 26.058594 72.238281 C 26.324219 70.523438 28.726562 70.046875 26.457031 68.878906 C 25.886719 68.589844 25.460938 68.453125 25.132812 68.386719 C 25.433594 67.398438 25.785156 66.378906 26.191406 65.332031 C 26.710938 67.179688 27.414062 68.96875 28.253906 70.695312 C 28.457031 70.492188 28.675781 70.308594 28.910156 70.132812 C 27.972656 68.175781 27.234375 66.128906 26.722656 64.019531 C 27.039062 63.273438 27.382812 62.519531 27.757812 61.757812 C 28.097656 61.613281 28.515625 61.375 29.058594 61 C 31.929688 59.007812 33.730469 59.351562 34.128906 56.953125 C 34.53125 54.554688 33.996094 54.347656 36.664062 53.183594 C 37.464844 52.835938 38.519531 52.679688 39.601562 52.550781 C 40.40625 55.59375 41.855469 58.433594 43.820312 60.960938 C 43.496094 61.507812 43.199219 62.035156 42.894531 62.566406 C 43.152344 62.660156 43.417969 62.777344 43.6875 62.941406 C 43.929688 62.523438 44.15625 62.109375 44.40625 61.683594 C 47.921875 65.878906 52.894531 69.144531 58.695312 70.933594 C 58.460938 72.445312 58.25 73.96875 58.054688 75.496094 C 58.332031 75.476562 58.628906 75.453125 58.925781 75.433594 C 59.113281 74.007812 59.304688 72.582031 59.523438 71.171875 C 62.496094 72.003906 65.667969 72.464844 68.964844 72.464844 C 69.074219 72.464844 69.175781 72.457031 69.285156 72.457031 C 69.285156 72.464844 69.289062 72.46875 69.289062 72.476562 C 69.304688 72.285156 69.320312 72.09375 69.363281 71.890625 C 69.382812 71.804688 69.421875 71.695312 69.449219 71.601562 C 69.449219 71.601562 69.449219 71.601562 69.449219 71.597656 C 69.511719 71.375 69.582031 71.144531 69.679688 70.886719 C 69.769531 70.636719 69.875 70.375 69.996094 70.101562 C 69.636719 70.324219 69.242188 70.558594 68.832031 70.777344 C 68.890625 71.066406 68.957031 71.34375 69.027344 71.609375 C 69.007812 71.609375 68.984375 71.609375 68.964844 71.609375 C 68.269531 71.609375 67.582031 71.578125 66.902344 71.539062 C 66.503906 71.632812 66.09375 71.6875 65.664062 71.6875 C 64.90625 71.6875 64.203125 71.507812 63.570312 71.167969 C 62.234375 70.957031 60.925781 70.679688 59.660156 70.324219 C 59.878906 68.925781 60.121094 67.546875 60.371094 66.171875 C 60.078125 65.980469 59.832031 65.753906 59.621094 65.507812 C 59.347656 67.023438 59.078125 68.542969 58.832031 70.082031 C 53.132812 68.300781 48.265625 65.0625 44.871094 60.910156 C 48.46875 54.980469 53.269531 48.539062 59.628906 41.644531 C 60.941406 42.9375 62.605469 43.957031 64.496094 44.585938 C 63.570312 47.890625 62.65625 51.4375 61.792969 55.136719 C 62.097656 54.832031 62.464844 54.496094 62.90625 54.128906 C 63.683594 50.882812 64.496094 47.769531 65.316406 44.839844 C 66.460938 45.144531 67.671875 45.304688 68.929688 45.304688 C 70.25 45.304688 71.519531 45.125 72.714844 44.792969 C 73.054688 46.019531 73.355469 47.222656 73.671875 48.433594 C 73.90625 48.378906 74.136719 48.3125 74.371094 48.269531 C 74.417969 48.257812 74.472656 48.25 74.519531 48.242188 C 74.195312 46.976562 73.859375 45.734375 73.527344 44.535156 C 75.347656 43.902344 76.949219 42.90625 78.222656 41.652344 C 78.882812 42.363281 79.523438 43.066406 80.152344 43.769531 C 78.699219 44.34375 77.523438 44.96875 77.5625 45.917969 C 77.589844 46.53125 78.085938 47.007812 78.511719 47.402344 C 79.761719 47.128906 81.125 46.816406 82.523438 46.492188 C 82.835938 46.421875 83.152344 46.347656 83.464844 46.273438 C 87.578125 45.3125 91.84375 44.257812 94.363281 43.570312 L 94.367188 43.570312 C 94.757812 43.464844 95.117188 43.367188 95.417969 43.277344 C 95.609375 43.21875 95.78125 43.167969 95.933594 43.125 C 95.945312 43.117188 95.957031 43.113281 95.972656 43.109375 C 96.121094 43.0625 96.246094 43.023438 96.34375 42.988281 C 96.542969 42.847656 96.796875 42.6875 97.175781 42.457031 C 97.3125 42.375 97.476562 42.273438 97.648438 42.167969 C 97.894531 42.015625 98.1875 41.828125 98.503906 41.625 C 98.816406 41.425781 99.152344 41.203125 99.527344 40.945312 C 99.539062 40.9375 99.550781 40.929688 99.5625 40.921875 C 100.816406 40.0625 102.390625 38.894531 104.195312 37.347656 C 104.195312 37.351562 104.195312 37.351562 104.195312 37.351562 C 104.621094 36.984375 105.0625 36.597656 105.511719 36.1875 C 103.105469 33.5 100.414062 31.070312 97.46875 28.96875 C 97.195312 28.773438 96.925781 28.574219 96.644531 28.386719 C 96.328125 28.167969 96.003906 27.960938 95.683594 27.75 C 95.445312 27.597656 95.210938 27.445312 94.972656 27.300781 C 89.328125 23.769531 82.910156 21.359375 76.03125 20.386719 L 75.808594 20.183594 C 75.789062 20.207031 75.738281 20.261719 75.671875 20.339844 C 73.53125 20.050781 71.351562 19.886719 69.132812 19.886719 C 66.785156 19.886719 64.476562 20.066406 62.210938 20.386719 C 62.121094 20.285156 62.050781 20.207031 62.03125 20.183594 L 61.738281 20.449219 C 59.046875 20.859375 56.429688 21.5 53.902344 22.332031 C 44.785156 25.117188 37.082031 30.375 31.925781 37.121094 C 24.722656 45.589844 20.367188 56.535156 20.367188 68.476562 C 20.367188 68.925781 20.386719 69.371094 20.398438 69.820312 C 20.398438 70.007812 20.386719 70.195312 20.386719 70.386719 " fill-opacity="1" fill-rule="nonzero"/><path fill="rgb(100%, 54.119873%, 54.119873%)" d="M 40.257812 74.816406 C 40.257812 74.816406 40.15625 74.8125 39.972656 74.796875 C 39.785156 74.789062 39.578125 74.78125 39.273438 74.796875 C 38.6875 74.816406 37.894531 74.957031 37.121094 75.21875 C 36.34375 75.472656 35.59375 75.835938 35.039062 76.121094 C 34.484375 76.40625 34.125 76.617188 34.125 76.617188 C 34.105469 76.628906 34.085938 76.625 34.074219 76.605469 C 34.066406 76.59375 34.070312 76.574219 34.085938 76.5625 C 34.085938 76.5625 34.40625 76.296875 34.914062 75.921875 C 35.425781 75.554688 36.125 75.070312 36.890625 74.679688 C 37.652344 74.277344 38.492188 73.988281 39.148438 73.855469 C 39.464844 73.789062 39.78125 73.753906 39.960938 73.734375 C 40.144531 73.71875 40.246094 73.710938 40.246094 73.710938 C 40.550781 73.683594 40.824219 73.90625 40.851562 74.214844 C 40.878906 74.519531 40.652344 74.789062 40.34375 74.816406 C 40.320312 74.820312 40.289062 74.820312 40.257812 74.816406 " fill-opacity="1" fill-rule="nonzero"/><path fill="rgb(100%, 54.119873%, 54.119873%)" d="M 97.054688 62.140625 C 97.054688 62.140625 96.964844 61.957031 96.835938 61.632812 C 96.710938 61.324219 96.578125 60.898438 96.488281 60.476562 C 96.296875 59.625 96.335938 58.777344 96.335938 58.777344 C 96.335938 58.761719 96.351562 58.742188 96.371094 58.746094 C 96.386719 58.746094 96.398438 58.753906 96.402344 58.769531 C 96.402344 58.769531 96.628906 59.578125 97.042969 60.269531 C 97.246094 60.617188 97.472656 60.941406 97.660156 61.167969 C 97.855469 61.386719 97.984375 61.535156 97.984375 61.535156 C 98.191406 61.769531 98.167969 62.125 97.933594 62.324219 C 97.699219 62.527344 97.34375 62.503906 97.140625 62.273438 C 97.105469 62.234375 97.078125 62.191406 97.058594 62.148438 L 97.054688 62.140625 " fill-opacity="1" fill-rule="nonzero"/><path fill="rgb(100%, 54.119873%, 54.119873%)" d="M 100.695312 78.96875 C 100.667969 78.96875 100.636719 78.960938 100.605469 78.941406 C 100.273438 78.738281 99.898438 78.503906 99.59375 78.191406 C 99.246094 77.835938 99.039062 77.417969 99.015625 77.011719 C 98.964844 76.199219 99.574219 75.535156 100.113281 75.050781 C 100.539062 74.664062 101.007812 74.3125 101.570312 74.3125 C 101.570312 74.3125 101.578125 74.3125 101.578125 74.3125 C 102.035156 74.316406 102.4375 74.558594 102.765625 74.796875 C 103.113281 75.042969 103.441406 75.320312 103.746094 75.617188 C 103.8125 75.683594 103.8125 75.785156 103.75 75.851562 C 103.6875 75.917969 103.578125 75.921875 103.511719 75.855469 C 103.222656 75.570312 102.90625 75.304688 102.570312 75.066406 C 102.285156 74.859375 101.941406 74.648438 101.578125 74.644531 C 101.574219 74.644531 101.570312 74.644531 101.570312 74.644531 C 101.121094 74.644531 100.710938 74.957031 100.335938 75.296875 C 99.855469 75.734375 99.304688 76.320312 99.347656 76.992188 C 99.367188 77.316406 99.539062 77.664062 99.832031 77.960938 C 100.109375 78.242188 100.464844 78.464844 100.785156 78.664062 C 100.859375 78.710938 100.886719 78.8125 100.835938 78.890625 C 100.804688 78.941406 100.75 78.96875 100.695312 78.96875 " fill-opacity="1" fill-rule="nonzero"/><path fill="rgb(100%, 54.119873%, 54.119873%)" d="M 65.542969 68.320312 C 65.375 68.320312 65.222656 68.292969 65.089844 68.230469 C 64.859375 68.128906 64.6875 67.933594 64.550781 67.78125 L 63.585938 66.703125 C 63.523438 66.632812 63.53125 66.527344 63.601562 66.46875 C 63.664062 66.410156 63.773438 66.414062 63.835938 66.484375 L 64.800781 67.558594 C 64.921875 67.695312 65.058594 67.851562 65.226562 67.929688 C 65.375 67.992188 65.554688 68.007812 65.769531 67.96875 C 66.207031 67.886719 66.617188 67.628906 66.96875 67.390625 C 67.210938 67.222656 67.457031 67.039062 67.570312 66.792969 C 67.789062 66.3125 67.464844 65.738281 67.152344 65.339844 L 67.003906 65.152344 C 66.660156 64.726562 66.308594 64.289062 66.265625 63.726562 C 66.257812 63.636719 66.328125 63.554688 66.421875 63.546875 C 66.511719 63.542969 66.589844 63.609375 66.597656 63.703125 C 66.632812 64.160156 66.953125 64.554688 67.261719 64.941406 L 67.414062 65.132812 C 67.785156 65.605469 68.160156 66.296875 67.871094 66.929688 C 67.722656 67.253906 67.4375 67.46875 67.15625 67.664062 C 66.78125 67.921875 66.332031 68.207031 65.824219 68.292969 C 65.726562 68.3125 65.632812 68.320312 65.542969 68.320312 " fill-opacity="1" fill-rule="nonzero"/><path fill="rgb(100%, 54.119873%, 54.119873%)" d="M 62.851562 63.808594 C 62.636719 63.808594 62.449219 63.761719 62.28125 63.675781 C 61.988281 63.519531 61.8125 63.25 61.644531 62.988281 C 61.476562 62.734375 61.320312 62.496094 61.078125 62.394531 C 60.996094 62.359375 60.953125 62.261719 60.992188 62.175781 C 61.027344 62.089844 61.125 62.050781 61.210938 62.085938 C 61.542969 62.226562 61.734375 62.523438 61.921875 62.804688 C 62.078125 63.042969 62.222656 63.265625 62.441406 63.378906 C 62.660156 63.5 62.957031 63.503906 63.324219 63.398438 C 63.699219 63.292969 64.0625 63.105469 64.414062 62.929688 C 64.613281 62.828125 64.816406 62.710938 64.871094 62.539062 C 64.910156 62.421875 64.867188 62.273438 64.832031 62.160156 C 64.675781 61.683594 64.382812 61.253906 64.097656 60.84375 L 63.132812 59.429688 C 63.082031 59.355469 63.101562 59.25 63.175781 59.199219 C 63.25 59.148438 63.355469 59.167969 63.410156 59.242188 L 64.375 60.65625 C 64.671875 61.085938 64.976562 61.535156 65.148438 62.054688 C 65.199219 62.21875 65.253906 62.429688 65.1875 62.640625 C 65.089844 62.957031 64.761719 63.125 64.5625 63.226562 C 64.199219 63.410156 63.824219 63.605469 63.414062 63.71875 C 63.214844 63.777344 63.023438 63.808594 62.851562 63.808594 " fill-opacity="1" fill-rule="nonzero"/><path fill="rgb(100%, 54.119873%, 54.119873%)" d="M 73.378906 73.191406 C 73.210938 73.191406 73.050781 73.160156 72.914062 73.128906 L 71.671875 72.867188 C 71.582031 72.851562 71.523438 72.761719 71.542969 72.671875 C 71.5625 72.582031 71.652344 72.523438 71.738281 72.542969 L 72.980469 72.804688 C 73.164062 72.84375 73.371094 72.886719 73.546875 72.839844 C 73.683594 72.800781 73.828125 72.703125 73.964844 72.546875 C 74.34375 72.105469 74.527344 71.46875 74.476562 70.742188 C 74.46875 70.640625 74.453125 70.535156 74.414062 70.453125 C 74.363281 70.351562 74.265625 70.269531 74.15625 70.175781 C 73.695312 69.804688 73.21875 69.441406 72.742188 69.109375 C 72.667969 69.058594 72.648438 68.953125 72.703125 68.875 C 72.753906 68.800781 72.859375 68.785156 72.933594 68.839844 C 73.417969 69.175781 73.898438 69.542969 74.367188 69.921875 C 74.503906 70.03125 74.632812 70.144531 74.710938 70.304688 C 74.78125 70.441406 74.796875 70.585938 74.808594 70.722656 C 74.863281 71.53125 74.65625 72.257812 74.21875 72.761719 C 74.035156 72.972656 73.835938 73.105469 73.632812 73.160156 C 73.546875 73.183594 73.460938 73.191406 73.378906 73.191406 " fill-opacity="1" fill-rule="nonzero"/><path fill="rgb(100%, 54.119873%, 54.119873%)" d="M 62.9375 59.152344 C 62.894531 59.152344 62.851562 59.136719 62.820312 59.101562 C 62.753906 59.039062 62.753906 58.933594 62.820312 58.867188 C 63.089844 58.609375 63.441406 58.566406 63.785156 58.53125 C 63.992188 58.503906 64.183594 58.480469 64.351562 58.417969 C 64.765625 58.257812 65.054688 57.789062 65.066406 57.28125 C 65.070312 56.71875 64.777344 56.222656 64.527344 55.90625 C 64.472656 55.835938 64.480469 55.734375 64.558594 55.675781 C 64.625 55.617188 64.734375 55.628906 64.789062 55.703125 C 65.070312 56.0625 65.40625 56.625 65.398438 57.285156 C 65.386719 57.925781 65.007812 58.519531 64.476562 58.726562 C 64.265625 58.808594 64.042969 58.835938 63.824219 58.859375 C 63.523438 58.894531 63.238281 58.925781 63.054688 59.105469 C 63.019531 59.136719 62.980469 59.152344 62.9375 59.152344 " fill-opacity="1" fill-rule="nonzero"/><path fill="rgb(100%, 54.119873%, 54.119873%)" d="M 37.703125 68.171875 C 37.289062 68.171875 36.886719 68.042969 36.597656 67.71875 C 36.539062 67.652344 36.542969 67.546875 36.609375 67.484375 C 36.679688 67.421875 36.785156 67.429688 36.847656 67.496094 C 37.277344 67.976562 38.105469 67.894531 38.707031 67.570312 C 39.007812 67.40625 39.296875 67.183594 39.570312 66.972656 C 39.875 66.738281 40.1875 66.496094 40.542969 66.3125 L 40.671875 66.246094 C 40.910156 66.128906 41.136719 66.015625 41.230469 65.820312 C 41.328125 65.613281 41.25 65.367188 41.140625 65.203125 C 41.078125 65.105469 40.996094 65.015625 40.90625 64.933594 C 40.839844 64.960938 40.761719 64.933594 40.71875 64.871094 L 40.554688 64.640625 C 40.507812 64.574219 40.515625 64.484375 40.574219 64.425781 C 40.632812 64.367188 40.726562 64.363281 40.792969 64.414062 C 41.007812 64.578125 41.253906 64.765625 41.421875 65.023438 C 41.621094 65.328125 41.664062 65.6875 41.53125 65.960938 C 41.386719 66.265625 41.085938 66.414062 40.820312 66.546875 L 40.695312 66.605469 C 40.371094 66.773438 40.082031 67 39.773438 67.234375 C 39.488281 67.457031 39.191406 67.683594 38.863281 67.863281 C 38.523438 68.050781 38.105469 68.171875 37.703125 68.171875 " fill-opacity="1" fill-rule="nonzero"/><path fill="rgb(100%, 54.119873%, 54.119873%)" d="M 54.378906 91.695312 C 54.371094 91.695312 54.363281 91.691406 54.355469 91.691406 C 54.261719 91.675781 54.199219 91.59375 54.210938 91.503906 C 54.730469 88.09375 54.363281 84.582031 53.152344 81.351562 C 53.121094 81.265625 53.164062 81.167969 53.25 81.136719 C 53.332031 81.105469 53.433594 81.148438 53.464844 81.234375 C 54.695312 84.519531 55.066406 88.089844 54.542969 91.550781 C 54.53125 91.632812 54.460938 91.695312 54.378906 91.695312 " fill-opacity="1" fill-rule="nonzero"/><path fill="rgb(100%, 54.119873%, 54.119873%)" d="M 34.1875 86.921875 C 33.214844 86.921875 32.242188 86.832031 31.289062 86.644531 C 31.199219 86.628906 31.140625 86.539062 31.15625 86.449219 C 31.171875 86.359375 31.257812 86.300781 31.355469 86.316406 C 35.207031 87.074219 39.328125 86.246094 42.667969 84.046875 C 43.613281 83.425781 44.363281 82.785156 44.957031 82.085938 C 46.332031 80.476562 47.085938 78.300781 47.015625 76.117188 C 47.011719 76.023438 47.085938 75.945312 47.179688 75.945312 C 47.277344 75.945312 47.347656 76.015625 47.351562 76.105469 C 47.417969 78.371094 46.640625 80.628906 45.210938 82.300781 C 44.59375 83.023438 43.824219 83.6875 42.851562 84.328125 C 40.269531 86.023438 37.222656 86.921875 34.1875 86.921875 " fill-opacity="1" fill-rule="nonzero"/><path fill="rgb(100%, 54.119873%, 54.119873%)" d="M 125.96875 45.347656 L 112.136719 54.246094 C 112.136719 54.246094 109.25 55.296875 110.167969 60.949219 C 111.082031 65.875 111.261719 65.507812 109.34375 68.472656 C 106.6875 72.027344 100.648438 78.867188 100.648438 78.867188 C 100.648438 78.867188 100.238281 79.035156 99.75 79.035156 C 98.875 79.035156 97.734375 78.507812 98.175781 75.585938 C 99 71.027344 102.292969 67.5625 102.292969 67.5625 C 102.292969 67.5625 103.257812 65.417969 100.738281 64.414062 C 98.222656 63.410156 98.085938 60.996094 96.757812 60.8125 C 96.691406 60.804688 96.613281 60.800781 96.523438 60.800781 C 94.714844 60.800781 87.8125 62.457031 86.503906 63.410156 C 85.132812 64.414062 76.941406 72.484375 75.472656 73.078125 C 74.652344 73.410156 73.855469 73.714844 73.171875 73.714844 C 72.640625 73.714844 72.175781 73.53125 71.8125 73.03125 C 70.992188 71.890625 77.523438 61.855469 78.988281 60.992188 C 80.453125 60.125 87.144531 56.070312 87.878906 55.160156 C 84.492188 56.980469 78.269531 60.539062 78.222656 60.769531 C 78.175781 60.996094 70.945312 66.695312 69.433594 67.5625 C 68.410156 68.148438 66.960938 69.21875 65.664062 69.21875 C 65.054688 69.21875 64.472656 68.980469 63.988281 68.335938 C 62.476562 66.332031 66.753906 64.0625 67.589844 63.554688 C 68.492188 63 75.269531 57.703125 77.03125 56.433594 C 78.535156 55.355469 83.714844 52.832031 83.714844 52.832031 C 83.714844 52.832031 77.175781 55.664062 76.625 56.074219 C 76.074219 56.484375 68.085938 62.511719 67.171875 63.101562 C 66.582031 63.484375 64.425781 64.394531 62.878906 64.394531 C 62.023438 64.394531 61.355469 64.113281 61.242188 63.320312 C 60.921875 61.085938 64.199219 59.738281 64.914062 59.226562 C 65.699219 58.660156 74.292969 53.550781 75.535156 53.027344 C 76.867188 52.46875 81.46875 51.648438 81.46875 51.648438 C 81.46875 51.648438 75.976562 52.292969 75.199219 52.75 C 74.421875 53.207031 69.222656 55.277344 65.15625 58.460938 C 64.652344 58.722656 64.230469 58.828125 63.898438 58.828125 C 63.175781 58.828125 62.84375 58.332031 62.84375 57.804688 C 62.84375 57.027344 69.296875 51.738281 74.832031 50.691406 C 80.371094 49.640625 97.167969 45.628906 97.671875 45.082031 C 98.160156 44.550781 106.503906 40.660156 116.261719 28.113281 C 116.070312 27.878906 115.890625 27.636719 115.695312 27.398438 C 107.527344 37.960938 100.394531 42.339844 98 43.804688 C 97.527344 44.09375 97.289062 44.238281 97.128906 44.375 C 95.667969 45.039062 80.605469 48.695312 74.667969 49.820312 C 69.480469 50.800781 61.953125 56.144531 61.953125 57.804688 C 61.953125 58.519531 62.296875 59.109375 62.839844 59.4375 C 61.570312 60.269531 60.09375 61.578125 60.363281 63.445312 C 60.4375 63.996094 60.84375 65.277344 62.878906 65.277344 C 63.183594 65.277344 63.5 65.25 63.824219 65.199219 C 63.320312 65.742188 62.953125 66.328125 62.824219 66.964844 C 62.691406 67.640625 62.84375 68.296875 63.277344 68.867188 C 63.886719 69.679688 64.714844 70.109375 65.664062 70.109375 C 66.972656 70.109375 68.253906 69.316406 69.289062 68.683594 C 69.496094 68.558594 69.695312 68.433594 69.878906 68.328125 C 70.910156 67.734375 74.003906 65.34375 74.925781 64.625 C 74.957031 64.597656 74.992188 64.574219 75.023438 64.546875 C 73.144531 67.335938 71.230469 70.691406 70.914062 72.214844 C 70.871094 72.425781 70.738281 73.0625 71.09375 73.550781 C 71.589844 74.238281 72.308594 74.601562 73.171875 74.601562 C 74.003906 74.601562 74.859375 74.285156 75.808594 73.902344 C 76.804688 73.496094 79.472656 71.058594 83.429688 67.382812 C 85.039062 65.886719 86.558594 64.46875 87.03125 64.125 C 88.117188 63.332031 94.851562 61.6875 96.523438 61.6875 C 96.566406 61.6875 96.605469 61.6875 96.636719 61.691406 C 96.832031 61.71875 97.125 62.148438 97.402344 62.566406 C 97.976562 63.417969 98.761719 64.582031 100.410156 65.238281 C 100.972656 65.464844 101.335938 65.761719 101.492188 66.128906 C 101.652344 66.507812 101.570312 66.90625 101.515625 67.097656 C 100.863281 67.824219 98.074219 71.140625 97.300781 75.429688 C 97.039062 77.15625 97.238281 78.351562 97.898438 79.121094 C 98.351562 79.644531 98.992188 79.917969 99.75 79.917969 C 100.394531 79.917969 100.921875 79.714844 100.980469 79.691406 L 101.175781 79.613281 L 101.3125 79.453125 C 101.5625 79.171875 107.410156 72.546875 110.058594 69 L 110.089844 68.953125 L 110.164062 68.839844 C 111.960938 66.074219 112 65.816406 111.273438 62.019531 C 111.203125 61.648438 111.125 61.242188 111.042969 60.789062 C 110.273438 56.046875 112.367188 55.109375 112.457031 55.074219 L 112.53125 55.042969 L 112.617188 54.992188 L 126.265625 46.210938 C 126.164062 45.921875 126.070312 45.632812 125.96875 45.347656 " fill-opacity="1" fill-rule="nonzero"/><path fill="rgb(100%, 54.119873%, 54.119873%)" d="M 78.929688 83.226562 L 78.925781 83.195312 C 78.632812 81.277344 76.65625 80.140625 73.488281 80.042969 C 73.617188 79.777344 73.667969 79.464844 73.632812 79.089844 C 73.484375 77.535156 72.132812 77.089844 70.515625 76.703125 C 70.246094 76.636719 69.722656 76.554688 68.296875 76.554688 C 65.285156 76.554688 60.144531 76.925781 57.074219 77.148438 C 56.273438 77.207031 55.628906 77.25 55.222656 77.277344 C 55.121094 77.285156 55.015625 77.289062 54.910156 77.289062 C 53.480469 77.289062 51.675781 76.75 50.226562 76.320312 C 49.421875 76.078125 48.726562 75.871094 48.203125 75.789062 C 45.925781 75.429688 41.785156 74.636719 40.003906 74.113281 C 40.195312 74.003906 40.390625 73.894531 40.558594 73.804688 C 41.261719 73.414062 42.058594 72.976562 42.640625 72.460938 C 43.710938 71.511719 45.703125 69.75 44.625 66.433594 L 44.601562 66.363281 L 44.570312 66.300781 C 43.734375 64.699219 42.6875 63.890625 41.460938 63.890625 C 39.640625 63.890625 37.941406 65.746094 36.433594 67.382812 C 35.28125 68.640625 33.675781 69.402344 32.257812 70.074219 C 30.8125 70.761719 29.558594 71.351562 28.90625 72.367188 C 27.914062 73.898438 27.3125 74.828125 23.945312 79.445312 C 21.035156 82.125 13.367188 84.234375 6.617188 85.644531 C 6.703125 85.933594 6.808594 86.210938 6.902344 86.492188 C 13.785156 85.042969 21.628906 82.859375 24.617188 80.035156 C 28 75.394531 28.628906 74.425781 29.652344 72.847656 C 30.753906 71.144531 34.6875 70.601562 37.09375 67.980469 C 38.605469 66.332031 40.085938 64.773438 41.460938 64.773438 C 42.277344 64.773438 43.054688 65.320312 43.777344 66.707031 C 44.605469 69.253906 43.402344 70.601562 42.050781 71.800781 C 40.699219 72.996094 37.695312 73.894531 38.746094 74.570312 C 39.796875 75.242188 46.632812 76.441406 48.0625 76.664062 C 49.421875 76.878906 52.542969 78.171875 54.910156 78.171875 C 55.035156 78.171875 55.15625 78.171875 55.277344 78.164062 C 57.207031 78.042969 64.519531 77.4375 68.296875 77.4375 C 69.222656 77.4375 69.9375 77.476562 70.304688 77.5625 C 72.183594 78.011719 72.671875 78.386719 72.75 79.171875 C 72.824219 79.960938 72.324219 80.386719 68.492188 80.757812 C 55.046875 82.144531 55.464844 82.28125 55.578125 82.28125 C 55.691406 82.28125 72.597656 80.933594 72.597656 80.933594 C 72.597656 80.933594 72.765625 80.921875 73.039062 80.921875 C 74.273438 80.921875 77.707031 81.125 78.046875 83.328125 C 78.171875 84.832031 77.476562 85.078125 77.003906 85.078125 C 76.769531 85.078125 76.589844 85.019531 76.589844 85.019531 C 76.589844 85.019531 75.90625 83.585938 73.714844 83.585938 C 73.425781 83.585938 73.109375 83.613281 72.769531 83.667969 C 55.878906 86.4375 56.328125 86.734375 56.328125 86.734375 C 56.328125 86.734375 64.457031 85.484375 66.894531 85.15625 C 68.792969 84.902344 71.589844 84.085938 73.636719 84.085938 C 74.847656 84.085938 75.792969 84.375 76.128906 85.238281 C 77.03125 87.558594 72.105469 88.203125 72.105469 88.203125 L 55.914062 90.523438 C 55.945312 90.578125 56.109375 90.601562 56.394531 90.601562 C 57.859375 90.601562 62.488281 89.953125 69.046875 89 C 69.484375 88.9375 69.878906 88.910156 70.226562 88.910156 C 71.367188 88.910156 72.027344 89.222656 72.035156 89.691406 C 72.058594 91.136719 70.492188 91.675781 68.464844 92.425781 C 66.433594 93.175781 58.082031 94.160156 52.371094 94.957031 C 50.207031 95.261719 46.9375 95.320312 43.546875 95.320312 C 41.375 95.320312 39.15625 95.296875 37.144531 95.296875 C 34 95.296875 31.367188 95.355469 30.230469 95.65625 C 28.65625 96.074219 21.132812 98.976562 14.273438 101.667969 C 14.441406 101.917969 14.613281 102.171875 14.78125 102.421875 C 21.53125 99.777344 28.949219 96.914062 30.457031 96.515625 C 31.554688 96.222656 34.453125 96.183594 37.144531 96.183594 C 38.128906 96.183594 39.164062 96.1875 40.21875 96.195312 C 41.316406 96.199219 42.441406 96.207031 43.546875 96.207031 C 46.664062 96.207031 50.164062 96.160156 52.496094 95.835938 C 53.714844 95.664062 55.0625 95.484375 56.441406 95.300781 C 61.675781 94.601562 67.085938 93.878906 68.773438 93.257812 L 68.933594 93.195312 C 71.003906 92.433594 72.957031 91.714844 72.925781 89.679688 C 72.925781 89.535156 72.894531 89.277344 72.734375 89.003906 C 73.804688 88.804688 76.015625 88.246094 76.820312 86.894531 C 76.992188 86.601562 77.09375 86.285156 77.121094 85.960938 C 77.621094 85.933594 78.066406 85.734375 78.386719 85.390625 C 78.828125 84.910156 79.011719 84.191406 78.933594 83.253906 L 78.929688 83.226562 " fill-opacity="1" fill-rule="nonzero"/></svg>